<svg width="189" height="102" viewBox="0 0 189 102" fill="none" xmlns="http://www.w3.org/2000/svg">
<path d="M137.7 15.2067H149.8L151.2 16.9068L160.4 40.1068L159.4 41.7067L139.5 41.8067L136.1 33.3067L137.7 15.2067Z" fill="#BDDFE0"/>
<path d="M57.8 86.6067H1.9C0.8 86.6067 0 85.7067 0 84.6067L0.2 79.6067C0.2 78.5067 1.1 77.6067 2.2 77.6067H58C59.1 77.6067 59.9 78.5067 59.9 79.6067L59.7 84.6067C59.7 85.7067 58.8 86.6067 57.8 86.6067Z" fill="#2B2B2B"/>
<path d="M166.7 73.1067C172 73.1067 176.1 79.3068 175.9 87.0068C175.6 94.7068 171.1 100.507 165.8 100.507C160.5 100.507 156.4 94.7068 156.6 87.0068C156.8 79.4068 161.3 73.1067 166.7 73.1067Z" fill="#323231"/>
<path d="M165.7 100.607H157.5L158.4 73.1067H166.7L165.7 100.607Z" fill="#323231"/>
<path d="M158.4 73.1067C163.7 73.1067 167.8 79.3068 167.6 87.0068C167.3 94.7068 162.8 100.507 157.5 100.507C152.2 100.507 148.1 94.7068 148.3 87.0068C148.6 79.4068 153.1 73.1067 158.4 73.1067Z" fill="#414141"/>
<path d="M158.2 77.7067C161.8 77.7067 164.5 81.9067 164.4 87.1067C164.2 92.3067 161.2 96.5068 157.6 96.5068C154 96.5068 151.3 92.3067 151.4 87.1067C151.6 81.9067 154.7 77.7067 158.2 77.7067Z" fill="#282828"/>
<path d="M88.9 73.1067C94.2 73.1067 98.3 79.3068 98.1 86.9068C97.8 94.5068 93.3 100.307 88 100.307C82.7 100.307 78.6 94.5068 78.8 86.9068C79.1 79.3068 83.6 73.1067 88.9 73.1067Z" fill="#323231"/>
<path d="M88 100.207H81.7L80.7 73.1067H88.8999L88 100.207Z" fill="#323231"/>
<path d="M82.2 73.1067C87.5 73.1067 91.6 79.3068 91.4 86.9068C91.1 94.5068 86.6 100.307 81.3 100.307C76 100.307 71.9 94.5068 72.1 86.9068C72.3 79.3068 76.9 73.1067 82.2 73.1067Z" fill="#414141"/>
<path d="M80.5 77.6067C84.1 77.6067 86.8 81.8068 86.7 86.9068C86.6 92.0068 83.5 96.2067 79.9 96.2067C76.3 96.2067 73.6 92.0068 73.7 86.9068C73.9 81.8068 76.9 77.6067 80.5 77.6067Z" fill="#282828"/>
<path d="M106.6 82.4068H158.1C159.5 82.4068 160.7 83.6068 160.6 85.0068L160.5 88.7067C160.5 90.1067 159.2 91.3067 157.8 91.3067H106.3C104.9 91.3067 103.7 90.1067 103.8 88.7067L103.9 85.0068C104 83.5068 105.2 82.4068 106.6 82.4068Z" fill="#353535"/>
<path d="M29.7 82.4068H81.2C82.6 82.4068 83.8 83.6068 83.7 85.0068L83.6 88.7067C83.6 90.1067 82.3 91.3067 80.9 91.3067H29.4C28 91.3067 26.8 90.1067 26.9 88.7067L27 85.0068C27 83.5068 28.3 82.4068 29.7 82.4068Z" fill="#353535"/>
<path d="M157.2 43.2067H161.5C162.3 43.2067 163 43.9067 163 44.7067V44.8067C163 45.6067 162.3 46.3067 161.4 46.3067H157.1C156.3 46.3067 155.6 45.6067 155.6 44.8067V44.7067C155.6 43.9067 156.3 43.2067 157.2 43.2067Z" fill="#3D3D3D"/>
<path d="M157.3 35.6068H164.1C164.8 35.6068 165.3 36.3068 165.3 37.1068L165.2 41.1068C165.2 41.9068 164.6 42.6068 163.9 42.6068H157.1C156.4 42.6068 155.9 41.9068 155.9 41.1068L156 37.1068C156.1 36.3068 156.6 35.6068 157.3 35.6068Z" fill="#3D3D3D"/>
<path d="M9.70003 6.40675C2.90003 27.0068 2.80003 70.1067 3.50003 79.7067C3.70003 81.8067 20.2 83.8067 22.3 83.8067H126.2L169.8 78.8067L185.9 78.2067L186.6 58.1068C186.7 55.3068 185.1 52.9068 182.5 51.9068L166.4 45.7067C165.3 45.3067 164.4 44.4067 164 43.3067L149.5 4.40675C148.1 2.10675 145.7 0.406754 142.9 0.406754L96.3 0.306747H94.5L15.1 0.00674438C12.7 0.00674438 10.5 4.20675 9.70003 6.40675ZM137.3 16.3067C137.4 16.1067 137.6 15.9067 137.8 15.7067C138.1 15.4067 138.5 15.1068 139 14.9068C139.7 14.6068 140.4 14.8067 140.8 15.2067C141 15.1067 141.2 15.0067 141.4 15.0067C142.8 14.7067 144.3 14.8067 145.7 15.0067C146.5 15.1067 147.3 15.1067 148.1 15.2067C149.6 15.1067 151 16.2067 151.2 17.7067C151.3 17.8067 151.3 18.0068 151.4 18.1068C151.8 19.2068 152.1 20.3068 152.4 21.4068C152.6 21.6068 152.8 21.8068 152.9 22.1068C153.1 22.9067 153.4 23.6068 153.6 24.4068C154.4 26.6068 155 28.9067 156 31.0067C157.2 33.5067 158.1 36.1067 158.9 38.8067C160 39.7067 159.4 41.6067 158.1 42.0067C157.8 42.1067 157.5 42.2067 157.2 42.2067H157.1C157 42.2067 156.8 42.2067 156.7 42.1068C152.9 42.6068 149.3 41.8067 145.5 42.0067C143.1 42.2067 139.5 42.9067 138 40.6068C137.5 39.9067 137.3 39.0068 137.3 38.1068C137 37.8068 136.8 37.3068 136.9 36.6068C137.1 35.4067 136.9 34.3067 136.9 33.0067C136.9 31.8067 137 30.6068 137.1 29.4068C137.3 27.2068 137.3 25.2067 136.9 23.0067C136.4 21.0067 136 18.1067 137.3 16.3067Z" fill="#FFAF2E"/>
<path d="M14.3 20.3067H92.6C94.6 24.2067 98.1 27.3068 100.9 30.6068C104.5 34.8068 108.2 38.9067 112.1 42.7067C118.7 49.0067 126 55.5068 129.9 63.9068C130.1 64.6068 130.5 65.4067 131 66.1068C132.6 68.1068 133 70.2068 133.5 73.0068C134 76.3068 134.2 79.7068 134.2 83.0068L126.2 83.9068H22.3C20.1 83.9068 3.7 82.0067 3.5 79.8067C2.8 70.2067 2.3 44.7068 9.1 24.1068C9.9 21.8068 12 20.3067 14.3 20.3067Z" fill="#2B2B2B"/>
<path d="M12.7 0.00673862L97 0.306742C99.4 0.306742 101.6 2.00674 102.7 4.10674C104.1 6.80674 115.3 34.8067 118.6 42.9067C119.2 44.3067 120.3 45.4067 121.6 45.9067L137.1 51.8067C139.8 52.8067 141.5 55.4067 141.4 58.3067L140.7 78.2067L124.3 79.4067C124.3 79.4067 122.3 71.0067 110.8 71.1067C98 71.2067 96.7 83.8067 96.7 83.8067H48.3C48.3 83.8067 43.8 72.4067 34.7 72.4067C25.6 72.4067 23.7 83.8067 23.7 83.8067H7.10002C4.90002 83.8067 3.20002 81.9067 3.00002 79.8067C2.30002 70.2067 2.30002 28.2067 7.30002 6.50674C7.90002 4.10674 9.40002 -0.193261 12.7 0.00673862Z" fill="#ED9914"/>
<path d="M186.7 77.2067C187.8 77.2067 188.7 78.1067 188.7 79.2067L188.5 83.7067C188.5 85.1067 187.3 86.2067 185.9 86.2067L141 86.8067L141.5 77.0068L186.7 77.2067Z" fill="#474747"/>
<path d="M91.4 14.9068L100 15.0067C100.6 15.0067 101.2 15.4068 101.4 15.9068L110.7 38.9068C111.1 39.9068 110.3 41.1068 109.2 41.1068H90.5C89.6 41.1068 89 40.4067 89 39.5067L89.8 16.4068C89.8 15.6068 90.5 14.9068 91.4 14.9068Z" fill="#3D3D3D"/>
<path d="M98.7 22.7067H104.2L110.8 39.0067C111.2 40.0067 110.4 41.2067 109.3 41.2067H96.2L96.8 24.7067C96.6 23.6067 97.6 22.7067 98.7 22.7067Z" fill="#474646"/>
<path d="M111.7 15.0067L139.1 15.1068C138.6 15.4068 138.2 15.9067 138.2 16.5067L137.4 39.6068C137.4 40.5068 138.1 41.3067 139 41.3067H143.7C143.6 41.4067 143.6 41.5067 143.5 41.7067L121.2 41.5067C120.8 41.5067 120.4 41.2067 120.2 40.8067L110.7 16.5067C110.3 15.8067 110.9 15.0067 111.7 15.0067Z" fill="#3D3D3D"/>
<path d="M142.2 26.4068L144.5 39.3068L120.2 40.8068L112.9 22.9068H137.9C140.1 22.8068 141.9 24.3068 142.2 26.4068Z" fill="#474646"/>
<path d="M144.5 34.3067C148.7 34.3067 152.1 36.4067 153.2 39.3067C152.5 39.3067 151.9 39.3067 151.2 39.3067C150.1 37.4067 147.5 36.1068 144.4 36.1068C142.3 36.1068 140.1 37.3067 139.1 38.7067C138.7 38.2067 137.7 38.9067 137.2 38.5067C138.2 36.0067 141.9 34.3067 144.5 34.3067Z" fill="#515151"/>
<g opacity="0.08">
<path opacity="0.08" d="M150.3 35.9068C147.3 36.5068 144.2 36.0067 141.2 35.0067C142.3 34.5067 143.5 34.3067 144.5 34.3067C146.7 34.3067 148.7 34.9068 150.3 35.9068Z" fill="white"/>
</g>
<path d="M98.4 83.6067C98.4 83.6067 99.4 84.6067 98 84.6067C96.5 84.6067 96.7 83.8067 96.7 83.8067L98.4 83.6067Z" fill="#2B2B2B"/>
<path d="M119.7 39.4068C119.2 40.5068 120 41.8067 121.2 41.8067L157.7 41.4068C158.3 41.4068 159.4 41.7067 159.6 41.3067L159.1 38.3067C156.5 36.7067 119.7 39.4068 119.7 39.4068Z" fill="#6D6D6D"/>
<path d="M25.3 83.6067C25.3 83.6067 26.6 84.6067 25.1 84.6067C23.5 84.6067 23.8 83.7067 23.8 83.7067L25.3 83.6067Z" fill="#2B2B2B"/>
<path d="M125.034 87.4177C125.531 79.8122 121.644 73.3667 116.353 73.0214C111.063 72.676 106.371 78.5616 105.875 86.1671C105.378 93.7726 109.265 100.218 114.556 100.563C119.846 100.909 124.538 95.0232 125.034 87.4177Z" fill="#323231"/>
<path d="M115 100.607H106.8L107.7 73.1067H115.9L115 100.607Z" fill="#323231"/>
<path d="M116.785 87.4719C117.281 79.8664 113.395 73.4209 108.104 73.0755C102.813 72.7302 98.1217 78.6157 97.6252 86.2212C97.1287 93.8267 101.015 100.272 106.306 100.618C111.597 100.963 116.288 95.0774 116.785 87.4719Z" fill="#414141"/>
<path d="M107.5 77.6067C111.1 77.6067 113.8 81.7068 113.6 86.9068C113.4 92.0068 110.4 96.2067 106.8 96.2067C103.2 96.2067 100.5 92.1068 100.7 86.9068C100.9 81.7068 104 77.6067 107.5 77.6067Z" fill="#323231"/>
<path d="M107.5 79.4068C110.4 79.4068 112.6 82.7067 112.4 86.8067C112.3 90.9067 109.8 94.2067 107 94.2067C104.1 94.2067 101.9 90.9067 102.1 86.8067C102.2 82.7067 104.6 79.4068 107.5 79.4068Z" fill="#C8CAC4"/>
<path d="M111.795 87.1461C112.036 83.4536 110.177 80.3261 107.641 80.1606C105.106 79.9951 102.856 82.8543 102.615 86.5469C102.374 90.2394 104.233 93.3669 106.769 93.5324C109.304 93.6979 111.554 90.8387 111.795 87.1461Z" fill="#C8CAC4"/>
<path d="M107.4 80.2067C107.6 80.2067 107.8 80.2067 108 80.3067C105.7 80.7067 103.9 83.5068 103.7 86.9068C103.6 90.3068 105.3 93.1068 107.5 93.5068C107.3 93.5068 107.1 93.6067 106.9 93.6067C104.3 93.6067 102.3 90.6068 102.5 86.9068C102.7 83.1068 104.9 80.2067 107.4 80.2067Z" fill="#AFAFAD"/>
<path d="M109 80.6067C109.6 80.8067 109.9 81.4067 109.8 81.7067C109.7 82.1067 109.1 82.2067 108.5 82.0067C107.9 81.8067 107.6 81.2067 107.7 80.9067C107.9 80.5067 108.4 80.4067 109 80.6067Z" fill="#414141"/>
<path d="M111.2 85.8067C111.6 85.8067 112 86.4067 112 87.1067C112 87.8067 111.6 88.4068 111.2 88.4068C110.8 88.4068 110.4 87.8067 110.4 87.1067C110.4 86.3067 110.8 85.8067 111.2 85.8067Z" fill="#414141"/>
<path d="M108.1 91.7067C108.7 91.5067 109.3 91.7067 109.4 92.1067C109.5 92.6067 109.1 93.1067 108.5 93.3067C107.9 93.5067 107.3 93.3067 107.2 92.9067C107.1 92.5067 107.5 91.9067 108.1 91.7067Z" fill="#414141"/>
<path d="M104.1 90.2067C104.4 90.8067 104.5 91.3067 104.4 91.5067C104.2 91.6067 103.9 91.3067 103.6 90.7067C103.3 90.1067 103.2 89.6067 103.3 89.4067C103.5 89.3067 103.8 89.6067 104.1 90.2067Z" fill="#414141"/>
<path d="M104.6 82.2068C104.7 82.3068 104.6 82.8068 104.3 83.4068C104 83.9068 103.7 84.3068 103.5 84.2068C103.4 84.1068 103.5 83.6068 103.8 83.0068C104.1 82.5068 104.4 82.1068 104.6 82.2068Z" fill="#414141"/>
<path d="M106.9 84.1067C108 84.1067 108.8 85.3068 108.8 86.9068C108.7 88.4068 107.8 89.7067 106.7 89.7067C105.6 89.7067 104.8 88.5068 104.8 86.9068C104.9 85.3068 105.9 84.1067 106.9 84.1067Z" fill="#414141"/>
<path d="M109.3 87.7067C109.5 87.7067 109.7 87.9067 109.7 88.2067C109.7 88.5067 109.5 88.7067 109.3 88.7067C109.1 88.7067 108.9 88.5067 108.9 88.2067C108.9 87.9067 109.1 87.7067 109.3 87.7067Z" fill="#414141"/>
<path d="M109.4 85.2067C109.6 85.2067 109.8 85.4067 109.8 85.7067C109.8 86.0067 109.6 86.2067 109.4 86.2067C109.2 86.2067 109 86.0067 109 85.7067C109 85.4067 109.2 85.2067 109.4 85.2067Z" fill="#414141"/>
<path d="M108.3 83.4068C108.5 83.4068 108.7 83.6068 108.7 83.9068C108.7 84.2068 108.5 84.4068 108.3 84.4068C108.1 84.4068 107.9 84.2068 107.9 83.9068C107.9 83.7068 108.1 83.4068 108.3 83.4068Z" fill="#414141"/>
<path d="M107 82.7067C107.2 82.7067 107.4 82.9067 107.4 83.2067C107.4 83.5067 107.2 83.7067 107 83.7067C106.8 83.7067 106.6 83.5067 106.6 83.2067C106.6 82.9067 106.8 82.7067 107 82.7067Z" fill="#414141"/>
<path d="M105.5 83.6067C105.7 83.6067 105.9 83.8067 105.9 84.1067C105.9 84.4067 105.7 84.6067 105.5 84.6067C105.3 84.6067 105.1 84.4067 105.1 84.1067C105 83.8067 105.2 83.6067 105.5 83.6067Z" fill="#414141"/>
<path d="M104.6 85.2067C104.8 85.2067 105 85.4067 105 85.7067C105 86.0067 104.8 86.2067 104.6 86.2067C104.4 86.2067 104.2 86.0067 104.2 85.7067C104.2 85.4067 104.4 85.2067 104.6 85.2067Z" fill="#414141"/>
<path d="M104.919 88.1892C104.945 87.9142 104.787 87.6747 104.567 87.6543C104.347 87.6338 104.148 87.8401 104.123 88.115C104.097 88.39 104.254 88.6295 104.474 88.65C104.694 88.6704 104.893 88.4641 104.919 88.1892Z" fill="#414141"/>
<path d="M105.4 89.4068C105.6 89.4068 105.8 89.6068 105.8 89.9068C105.8 90.2068 105.6 90.4068 105.4 90.4068C105.2 90.4068 105 90.2068 105 89.9068C104.9 89.7068 105.1 89.4068 105.4 89.4068Z" fill="#414141"/>
<path d="M106.9 90.2067C107.1 90.2067 107.3 90.4067 107.3 90.7067C107.3 91.0067 107.1 91.2067 106.9 91.2067C106.7 91.2067 106.5 91.0067 106.5 90.7067C106.5 90.4067 106.6 90.2067 106.9 90.2067Z" fill="#414141"/>
<path d="M108.3 89.4068C108.5 89.4068 108.7 89.6068 108.7 89.9068C108.7 90.2068 108.5 90.4068 108.3 90.4068C108.1 90.4068 107.9 90.2068 107.9 89.9068C107.9 89.7068 108.1 89.4068 108.3 89.4068Z" fill="#414141"/>
<path d="M51.6404 87.2897C52.1203 79.7937 48.3092 73.4481 43.1281 73.1164C37.947 72.7847 33.3579 78.5926 32.878 86.0887C32.3982 93.5847 36.2093 99.9303 41.3904 100.262C46.5715 100.594 51.1606 94.7858 51.6404 87.2897Z" fill="#323231"/>
<path opacity="0.22" d="M156.5 41.8067L140.2 41.6068C140.2 41.6068 116.3 15.3068 116 14.9068H133.2L156.5 41.8067Z" fill="white"/>
<path opacity="0.11" d="M109.2 40.8067H98.5L89.4 30.3067L89.9 16.7067L110.8 39.6068C110.7 40.4067 110 40.8067 109.2 40.8067Z" fill="white"/>
<path d="M158.7 42.6068C158.7 42.6068 158.6 42.6068 158.7 42.6068L121.2 42.2067C120.5 42.2067 119.8 41.7068 119.5 41.1068L110 16.8067C109.8 16.2067 109.9 15.6068 110.2 15.1068C110.6 14.6068 111.1 14.3067 111.8 14.3067L149.9 14.5067C150.7 14.5067 151.3 15.0067 151.6 15.7067L160.5 40.2067C160.7 40.8067 160.6 41.4068 160.3 41.9068C159.8 42.3068 159.3 42.6068 158.7 42.6068ZM111.7 15.7067C111.5 15.7067 111.4 15.8068 111.4 15.9068C111.4 16.0068 111.3 16.1067 111.4 16.2067L120.9 40.5067C120.9 40.6067 121 40.7067 121.2 40.7067L158.7 41.1068C158.9 41.1068 159 41.0068 159 40.9068C159 40.8068 159.1 40.7068 159 40.6068L150.1 16.1068C150.1 16.0068 150 15.9068 149.8 15.9068L111.7 15.7067Z" fill="#3A3A3A"/>
<path d="M41.8 100.207H33.7L34.6 73.1067H42.7L41.8 100.207Z" fill="#323231"/>
<path d="M43.5709 87.3225C44.0507 79.8265 40.2396 73.4809 35.0585 73.1492C29.8774 72.8175 25.2883 78.6254 24.8085 86.1215C24.3286 93.6175 28.1397 99.9632 33.3208 100.295C38.5019 100.626 43.091 94.8186 43.5709 87.3225Z" fill="#414141"/>
<path d="M34.5 77.5068C38 77.5068 40.7 81.6067 40.5 86.6067C40.3 91.7067 37.4 95.7067 33.9 95.7067C30.4 95.7067 27.7 91.6067 27.9 86.6067C28 81.6067 31 77.5068 34.5 77.5068Z" fill="#323231"/>
<path d="M34.4 79.3067C37.2 79.3067 39.3 82.6067 39.2 86.6067C39.1 90.6067 36.7 93.9068 33.9 93.9068C31.1 93.9068 29 90.6067 29.1 86.6067C29.2 82.6067 31.6 79.3067 34.4 79.3067Z" fill="#C8CAC4"/>
<path d="M34.4 79.3067C37.2 79.3067 39.3 82.6067 39.2 86.6067C39.1 90.6067 36.7 93.9068 33.9 93.9068C31.1 93.9068 29 90.6067 29.1 86.6067C29.2 82.6067 31.6 79.3067 34.4 79.3067Z" fill="#C8CAC4"/>
<path d="M34.1 80.3067C34.7 80.3067 35.2 80.5067 35.7 80.7067C34 81.6067 32.8 83.9067 32.7 86.6067C32.6 89.3067 33.7 91.6068 35.3 92.5068C34.8 92.8068 34.3 92.9068 33.7 92.9068C31.3 92.9068 29.4 90.1067 29.5 86.6067C29.6 83.1067 31.7 80.3067 34.1 80.3067Z" fill="#8C8C8C"/>
<path d="M36.5 83.6067C37.7 83.6067 38.6 85.0067 38.6 86.7067C38.6 88.4067 37.5 89.8067 36.3 89.8067C35.1 89.8067 34.2 88.4067 34.2 86.7067C34.2 85.0067 35.3 83.6067 36.5 83.6067Z" fill="#414141"/>
<path d="M39.1 87.6067C39.1 88.0067 39 88.3067 38.9 88.7067C38.7 88.6067 38.6 88.4067 38.6 88.2067C38.7 87.9067 38.9 87.6067 39.1 87.6067Z" fill="#414141"/>
<path d="M39.1 84.9068C39.2 85.3068 39.2 85.6068 39.2 86.0068C38.9 86.0068 38.8 85.7068 38.8 85.4068C38.8 85.2068 38.9 85.0068 39.1 84.9068Z" fill="#414141"/>
<path d="M38 82.9068C38.3 82.9068 38.4 83.2068 38.4 83.5068C38.4 83.8068 38.2 84.1067 37.9 84.1067C37.6 84.1067 37.5 83.8068 37.5 83.5068C37.6 83.1068 37.8 82.9068 38 82.9068Z" fill="#414141"/>
<path d="M36.6 82.0068C36.9 82.0068 37 82.3067 37 82.6067C37 82.9067 36.8 83.2067 36.5 83.2067C36.2 83.2067 36.1 82.9067 36.1 82.6067C36.1 82.3067 36.3 82.0068 36.6 82.0068Z" fill="#414141"/>
<path d="M34.9 83.0068C35.2 83.0068 35.3 83.3067 35.3 83.6067C35.3 83.9067 35.1 84.2067 34.8 84.2067C34.5 84.2067 34.4 83.9067 34.4 83.6067C34.4 83.3067 34.6 83.0068 34.9 83.0068Z" fill="#414141"/>
<path d="M133.4 61.2067H185.2C186.3 61.2067 187.2 62.1067 187.2 63.3067L186.9 71.7067C186.9 73.0067 185.7 74.1067 184.4 74.1067H178.4C178 74.1067 177.7 74.3067 177.6 74.7067L177.3 75.6067C177.2 75.9067 176.8 76.2067 176.5 76.2067H154C153.6 76.2067 153.3 76.0067 153.2 75.6067L152.9 74.7067C152.8 74.4067 152.5 74.1067 152.1 74.1067H134.6C133.9 74.1067 133.4 73.5068 133.3 72.9068L132 62.8067C131.9 61.8067 132.6 61.2067 133.4 61.2067Z" fill="#474747"/>
<path d="M33.9 84.9068C34.2 84.9068 34.3 85.2068 34.3 85.5068C34.3 85.8068 34.1 86.1067 33.8 86.1067C33.5 86.1067 33.4 85.8068 33.4 85.5068C33.4 85.1068 33.6 84.9068 33.9 84.9068Z" fill="#414141"/>
<path d="M33.8 87.6067C34.1 87.6067 34.2 87.9067 34.2 88.2067C34.2 88.5067 34 88.8067 33.7 88.8067C33.4 88.8067 33.3 88.5067 33.3 88.2067C33.3 87.9067 33.5 87.6067 33.8 87.6067Z" fill="#414141"/>
<path d="M34.7 89.6067C35 89.6067 35.1 89.9067 35.1 90.2067C35.1 90.5067 34.9 90.8067 34.6 90.8067C34.3 90.8067 34.2 90.5067 34.2 90.2067C34.3 89.9067 34.5 89.6067 34.7 89.6067Z" fill="#414141"/>
<path d="M36.4 90.5068C36.7 90.5068 36.8 90.8067 36.8 91.1067C36.8 91.4067 36.6 91.7067 36.3 91.7067C36 91.7067 35.9 91.4067 35.9 91.1067C36 90.7067 36.2 90.5068 36.4 90.5068Z" fill="#414141"/>
<path d="M92.6 82.9068H86.1C85.4 82.9068 84.8 82.6067 84.3 82.1067C83.8 81.6067 83.6 81.0067 83.6 80.3067L85.8 13.9068C85.8 12.5068 87 11.4068 88.4 11.4068H101.5C102.5 11.4068 103.4 12.0068 103.8 12.9068L113.7 36.8067C113.8 37.1067 113.9 37.5068 113.9 37.9068L113.1 61.6068C113.1 62.9067 112 64.0068 110.7 64.1068C100.6 65.2067 96.2 77.4067 95 81.1067C94.8 82.1067 93.8 82.9068 92.6 82.9068ZM88.4 12.9068C87.8 12.9068 87.3 13.4067 87.3 14.0067L85.1 80.4068C85.1 80.7068 85.2 80.9067 85.4 81.1067C85.6 81.3067 85.8 81.4068 86.1 81.4068H92.6C93.1 81.4068 93.5 81.1067 93.7 80.6067C94.9 76.7067 99.7 63.8068 110.6 62.6068C111.2 62.5068 111.6 62.1067 111.6 61.5067L112.4 37.8067C112.4 37.6067 112.4 37.5068 112.3 37.4068L102.4 13.5067C102.2 13.1067 101.9 12.9068 101.5 12.9068H88.4Z" fill="#D6850D"/>
<path d="M38 89.6067C38.2 89.6067 38.4 89.8067 38.4 90.2067C38.3 90.4067 38.3 90.5067 38.2 90.7067C38.1 90.8067 38 90.8067 38 90.8067C37.7 90.8067 37.6 90.5067 37.6 90.2067C37.6 89.9067 37.8 89.6067 38 89.6067Z" fill="#414141"/>
<path opacity="0.25" d="M34.4 79.3067C37.2 79.3067 39.3 82.6067 39.2 86.6067C39.1 88.4067 38.6 90.1067 37.8 91.3067C35.7 88.9067 32.3 86.4068 29.1 87.0068C29.1 86.8068 29.1 86.7068 29.1 86.5068C29.2 82.6068 31.6 79.3067 34.4 79.3067Z" fill="black"/>
<path d="M36 68.9068C39.1 68.8068 42.7 69.8068 45.8 72.3068C48.6 74.6068 51 78.2068 52.3 83.8068L50 84.2067C48.7 84.4067 47.5 83.8067 47 82.6067C45.5 79.1067 41.6 72.4068 34.8 72.4068C25.7 72.4068 23.8 83.8068 23.8 83.8068C23.8 83.8068 25.4 69.2068 36 68.9068Z" fill="#FFAF2E"/>
<path d="M136.8 63.2067H150.5C151.2 63.2067 151.7 63.7068 151.7 64.4068L151.5 70.4068C151.5 71.1068 150.9 71.6067 150.3 71.6067H137.5C136.9 71.6067 136.4 71.2068 136.4 70.6068L135.6 64.6068C135.4 63.9068 136 63.2067 136.8 63.2067Z" fill="#F2F2F2"/>
<path d="M136.8 63.2067H141.1L140.8 71.6067H137.5C136.9 71.6067 136.4 71.2068 136.4 70.6068L135.6 64.6068C135.4 63.9068 136 63.2067 136.8 63.2067Z" fill="#EA5615"/>
<path d="M181.5 63.2067H186.2C187 63.2067 187.6 63.8068 187.6 64.6068L187.4 70.2067C187.4 71.0067 186.7 71.6067 186 71.6067H180.6C179.9 71.6067 179.4 71.1068 179.4 70.4068L179.9 64.2067C180 63.5067 180.8 63.2067 181.5 63.2067Z" fill="#F2F2F2"/>
<path d="M185.9 72.1067H180.5C180.1 72.1067 179.6 71.9067 179.3 71.6067C179 71.3067 178.8 70.9068 178.9 70.4068L179.4 64.4068C179.4 63.5068 180.2 62.8067 181.1 62.8067H186.1C186.6 62.8067 187.1 63.0068 187.4 63.4068C187.7 63.8068 187.9 64.2067 187.9 64.7067L187.7 70.3067C187.8 71.3067 186.9 72.1067 185.9 72.1067ZM181.2 63.7067C180.8 63.7067 180.4 64.0068 180.4 64.4068L179.9 70.4068C179.9 70.6068 180 70.8068 180.1 70.9068C180.2 71.0068 180.4 71.1067 180.6 71.1067H186C186.5 71.1067 187 70.7067 187 70.2067L187.2 64.6068C187.2 64.3068 187.1 64.1068 186.9 63.9068C186.7 63.7068 186.5 63.6068 186.2 63.6068H181.2V63.7067Z" fill="#353535"/>
<path d="M155 62.8067H176.4C177.2 62.8067 177.8 63.5067 177.7 64.2067L176.4 73.6067C176.3 74.3067 175.7 74.8067 175.1 74.8067H155.8C155.1 74.8067 154.6 74.3067 154.5 73.6067L153.6 64.3067C153.6 63.5067 154.2 62.8067 155 62.8067Z" fill="#353535"/>
<path d="M178 65.9068H153.2L153.3 64.6068H178V65.9068Z" fill="#474747"/>
<path d="M177.9 69.6068H153.1V68.3067H177.9V69.6068Z" fill="#474747"/>
<path d="M177.7 73.3067H153V72.0068H177.8L177.7 73.3067Z" fill="#474747"/>
<path d="M152.3 80.2067H179.7C180.1 80.2067 180.4 80.5068 180.4 80.9068V81.9068C180.4 82.3068 180 82.6067 179.6 82.6067H152.2C151.8 82.6067 151.5 82.3068 151.5 81.9068V80.9068C151.6 80.5068 151.9 80.2067 152.3 80.2067Z" fill="#353535"/>
<path d="M119.1 66.8067C123.6 68.7067 127.1 74.6067 127.4 78.8067L120.8 79.4068C120.8 79.4068 118.4 71.2067 109.4 71.3067C99.3 71.4067 96.6 83.8067 96.6 83.8067C96.6 83.8067 97.1 76.1068 101.5 70.9068C104.8 66.8068 111.9 63.8067 119.1 66.8067Z" fill="#FFAF2E"/>
<path d="M119.9 78.0068L141.6 77.0068C142.7 77.0068 143.6 78.1067 143.6 79.2067L143.4 83.4068C143.4 84.8068 142.1 86.8067 140.7 86.8067H140.3L121.3 86.2067C120.3 86.2067 119.4 86.4068 119.3 85.4068C119.1 84.2068 119.1 79.9067 119 79.2067C118.8 78.6067 119.3 78.1068 119.9 78.0068Z" fill="#3D3D3D"/>
<path d="M89.3 48.3067H89.8C90.3 48.3067 90.8 48.7067 90.8 49.2067L90.6 56.0067C90.6 56.5067 90.1 56.9068 89.6 56.9068H89.1C88.6 56.9068 88.1 56.5067 88.1 56.0067L88.3 49.2067C88.3 48.8067 88.7 48.3067 89.3 48.3067Z" fill="#3D3D3D"/>
<path d="M109.2 41.9068H90.5C89.9 41.9068 89.3 41.7067 88.9 41.2067C88.5 40.8067 88.2 40.2067 88.3 39.5067L89.1 16.4068C89.1 15.1068 90.2 14.1068 91.5 14.1068L100.1 14.2067C101 14.2067 101.8 14.8068 102.2 15.6068L111.5 38.6068C111.8 39.3068 111.7 40.1067 111.3 40.8067C110.7 41.5067 110 41.9068 109.2 41.9068ZM91.4 15.7067C90.9 15.7067 90.6 16.1067 90.5 16.5067L89.7 39.6068C89.7 39.8068 89.8 40.0067 89.9 40.2067C90 40.3067 90.2 40.4068 90.4 40.4068H109.2C109.5 40.4068 109.7 40.3067 109.9 40.0067C110.1 39.8067 110.1 39.5067 110 39.2067L100.7 16.2067C100.6 15.9067 100.3 15.7067 100 15.7067H91.4Z" fill="#3A3A3A"/>
<path d="M110.2 38.1068H115.1C116.1 38.1068 116.8 39.0067 116.8 40.0067V40.1068C116.8 41.1068 116 42.0067 115 42.0067H110.1C109.1 42.0067 108.4 41.1068 108.4 40.1068V40.0067C108.5 39.0067 109.3 38.1068 110.2 38.1068Z" fill="#303030"/>
<path d="M102.5 33.8067H110.4C111.2 33.8067 111.8 34.6068 111.8 35.6068L111.6 40.3067C111.6 41.3067 110.9 42.1068 110.1 42.1068H102.2C101.4 42.1068 100.8 41.3067 100.8 40.3067L101 35.6068C101 34.6068 101.7 33.8067 102.5 33.8067Z" fill="#303030"/>
<path d="M104.7 33.8067H112.6C113.4 33.8067 114 34.6068 114 35.6068L113.8 40.3067C113.8 41.3067 113.1 42.1068 112.3 42.1068H104.4C103.6 42.1068 103 41.3067 103 40.3067L103.2 35.6068C103.2 34.6068 103.9 33.8067 104.7 33.8067Z" fill="#3D3D3D"/>
<path d="M150.2 72.1067H137.4C136.6 72.1067 135.9 71.5067 135.8 70.7067L135 64.7067C134.9 64.2067 135.1 63.7068 135.4 63.4068C135.7 63.0068 136.2 62.8067 136.7 62.8067H150.4C150.8 62.8067 151.3 63.0067 151.6 63.3067C151.9 63.6067 152.1 64.0067 152 64.5067L151.8 70.5067C151.9 71.4067 151.1 72.1067 150.2 72.1067ZM136.8 63.7067C136.6 63.7067 136.4 63.8067 136.2 64.0067C136.1 64.2067 136 64.4068 136 64.6068L136.8 70.6068C136.8 71.0068 137.1 71.2067 137.5 71.2067H150.2C150.6 71.2067 151 70.9067 151 70.5067L151.2 64.5067C151.2 64.3067 151.1 64.1067 151 64.0067C150.9 63.9067 150.7 63.8067 150.5 63.8067H136.8V63.7067Z" fill="#353535"/>
<g opacity="0.29">
<path opacity="0.29" d="M151.6 52.9067C151.8 52.5067 151.7 52.1067 151.3 51.9067L139.9 45.6067C139.5 45.4067 139.1 45.5067 138.9 45.9067C138.7 46.3067 138.8 46.7067 139.2 46.9067L150.6 53.2067C150.9 53.4067 151.4 53.3067 151.6 52.9067Z" fill="#D6850D"/>
</g>
<path d="M6.1 77.7067H2.2C1.1 77.7067 0.2 78.6067 0.2 79.7067L0 84.7067C0 85.8067 0.8 86.7067 1.9 86.7067H5.9C6.5 86.7067 7 86.2067 7 85.6067L7.2 79.0068C7.3 78.2068 6.8 77.7067 6.1 77.7067Z" fill="#3D3D3D"/>
<path opacity="0.7" d="M17.2 62.9068H67.4C67.8 62.9068 68.2 62.5068 68.2 62.1068C68.2 61.7068 67.9 61.3067 67.4 61.3067H17.3C16.9 61.3067 16.5 61.7068 16.5 62.1068C16.4 62.5068 16.8 62.9068 17.2 62.9068Z" fill="#FFAF2E"/>
<path opacity="0.7" d="M18.8 16.4068H69C69.4 16.4068 69.8 16.0068 69.8 15.6068C69.8 15.2068 69.5 14.8067 69 14.8067H18.8C18.4 14.8067 18 15.2068 18 15.6068C18 16.1068 18.3 16.4068 18.8 16.4068Z" fill="#FFAF2E"/>
<path d="M120.5 65.0067H118.3C117.5 65.0067 116.8 64.3067 116.8 63.5067V62.6068C116.8 61.8068 117.5 61.1068 118.3 61.1068H120.5C121.3 61.1068 122 61.8068 122 62.6068V63.5067C122 64.3067 121.3 65.0067 120.5 65.0067Z" fill="#3D3D3D"/>
<path d="M120 65.0067H117.7C116.9 65.0067 116.3 64.4068 116.3 63.6068V62.6068C116.3 61.8068 116.9 61.2067 117.7 61.2067H120C120.8 61.2067 121.4 61.8068 121.4 62.6068V63.6068C121.4 64.4068 120.7 65.0067 120 65.0067Z" fill="#474747"/>
<path d="M119.4 64.2067H118.2C117.7 64.2067 117.3 63.8067 117.3 63.3067V62.8067C117.3 62.3067 117.7 61.9068 118.2 61.9068H119.5C120 61.9068 120.4 62.3067 120.4 62.8067V63.3067C120.3 63.8067 119.9 64.2067 119.4 64.2067Z" fill="#EA5615"/>
<path d="M96.5 84.9068H49.5C48.9 84.9068 48.3 84.4067 48.3 83.7067C48.3 83.1067 48.8 82.5068 49.5 82.5068H96.5C97.1 82.5068 97.7 83.0067 97.7 83.7067C97.6 84.4067 97.1 84.9068 96.5 84.9068Z" fill="#2B2B2B"/>
<path d="M91 84.9068H49.2C48.6 84.9068 48 84.4067 48 83.7067C48 83.1067 48.5 82.5068 49.2 82.5068H91C91.6 82.5068 92.2 83.0067 92.2 83.7067C92.1 84.4067 91.6 84.9068 91 84.9068Z" fill="#3F3F3F"/>
</svg>
