<svg width="109" height="207" viewBox="0 0 109 207" fill="none" xmlns="http://www.w3.org/2000/svg">
<path opacity="0.12" d="M100.1 201.693C100.1 201.693 78.0001 206.893 50.7001 206.893C23.4001 206.893 1.30005 201.693 1.30005 201.693C1.30005 201.693 23.4001 196.493 50.7001 196.493C78.0001 196.493 100.1 201.693 100.1 201.693Z" fill="#2A0900"/>
<path d="M78.3001 98.6932C78.9001 98.3932 80.1001 98.3932 80.4001 98.3932C82.8001 99.1932 83.4001 98.6932 85.8001 99.0932C87.2001 100.093 88.3001 101.893 88.6001 103.493C89.1001 106.093 88.3001 108.993 86.7001 111.093C86.6001 111.293 86.4001 111.493 86.2001 111.593C85.7001 111.793 85.0001 111.393 84.4001 111.593C83.9001 111.693 83.6001 112.293 83.1001 112.293C82.4001 112.393 81.8001 111.593 81.1001 111.693C80.5001 111.793 80.2001 112.493 79.6001 112.693C79.1001 112.793 78.7001 112.493 78.2001 112.393C77.6001 112.193 76.9001 112.393 76.4001 112.793C75.9001 113.193 75.8001 113.593 75.0001 113.393C74.6001 113.293 73.5001 112.793 73.2001 112.493C72.3001 111.593 72.1001 110.593 72.1001 110.093C72.1001 109.093 73.8001 109.193 74.0001 108.193L74.3001 106.593C73.4001 106.193 73.2001 104.393 73.7001 102.893C74.8001 100.693 75.7001 99.8932 78.3001 98.6932Z" fill="#FBA386"/>
<path d="M31.9001 52.9932C31.9001 52.9932 6.80009 82.1932 9.20009 91.1932C11.7001 100.193 27.4001 79.8932 27.4001 79.8932L31.9001 52.9932Z" fill="#ED8C73"/>
<path d="M40.5001 48.7932C40.5001 48.7932 27.3001 48.1932 20.1001 65.7932L28.2001 74.1932L30.9001 64.4932C31.0001 64.5932 37.3001 53.3932 40.5001 48.7932Z" fill="#D81D2D"/>
<path d="M69.1 56.1932C68.3 51.8932 63.9 49.4932 60 48.5932C57 47.8932 53.9 47.8932 50.8 47.9932C49.3 47.9932 47.7 48.0932 46.2 48.0932C44.5 48.0932 42.7 48.1932 40.9 48.5932C39 49.0932 37.5 50.0932 36 51.1932C34.2 52.5932 32.6 54.2932 31.4 56.2932C30.6 57.5932 30 58.9932 29.6 60.4932C25.4 74.7932 32.7 106.793 32.7 106.793C45.6 110.193 74.2 101.593 65 106.793C65 106.793 71.5 69.0932 69.1 56.1932Z" fill="#FC2828"/>
<path d="M69.0999 56.1932C68.6999 53.9932 67.3999 52.3932 65.5999 51.0932C65.5999 57.6932 64.7999 64.2932 58.9999 68.2932C54.1999 71.6932 47.7999 71.9932 42.1999 71.3932C37.4999 70.8932 32.1999 69.3932 28.4999 66.1932C26.9999 81.8932 32.5999 106.793 32.5999 106.793C42.0999 109.293 59.9999 105.293 65.1999 105.093C66.4999 97.6932 71.1999 67.4932 69.0999 56.1932Z" fill="#D81D2D"/>
<path d="M65 106.793C65 106.793 65.1 106.193 65.3 105.093C67.2 104.993 67.4 105.493 65 106.793Z" fill="#D1D1D1"/>
<path d="M31.4 117.993C31.9 122.193 64 117.793 64 117.793L68.2 95.7932L28.9 94.8932C28.8 94.7932 30.5 110.693 31.4 117.993Z" fill="#2A6FDB"/>
<path d="M44.7001 173.793C40.4001 174.393 36.2001 174.993 31.9001 175.293C28.6001 132.193 28.9 93.3932 28.8 94.7932L44.4001 111.693C44.8001 110.493 42.0001 129.193 44.7001 173.793Z" fill="#2A6FDB"/>
<path d="M66.2998 141.193C61.2998 142.693 56.2999 144.093 51.3999 145.593C49.0999 115.493 53.7998 106.493 53.7998 106.693L68.2998 95.6932C68.1998 95.6932 65.2998 111.793 66.2998 141.193Z" fill="#2A6FDB"/>
<path d="M36.4 139.693C39.7 139.593 42.0999 137.393 43.5999 134.693C43.4999 144.793 45.9 165.793 45.9 186.593C41.6 187.193 35.7999 185.793 31.4999 186.093C30.4999 172.693 30.2 148.593 29.7 136.693C31.3 138.593 33.5 139.793 36.4 139.693Z" fill="#1E55BC"/>
<path d="M56.9999 139.993C60.8999 140.393 64.0999 138.793 66.0999 136.193C66.2999 147.693 69.3999 169.593 69.3999 184.893C65.6999 185.293 57.4999 185.293 56.5999 185.293C53.1999 170.593 51.1999 147.393 50.8999 137.393C52.4999 138.793 54.5999 139.793 56.9999 139.993Z" fill="#1E55BC"/>
<path d="M29.8 97.1932L34.3 73.2932H57.3L60.5001 99.2932L29.8 97.1932Z" fill="#2A6FDB"/>
<path d="M37.7 49.0932C34.4 57.2932 34.2 70.9932 34.2 71.5932L38.4999 71.2932C38.2999 66.7932 38.5 53.5932 42.7 48.2932C41.6 48.0932 38.9 48.1932 37.7 49.0932Z" fill="#2A6FDB"/>
<path d="M57.6 48.2932C53.2 56.4932 53.6 73.2932 53.6 73.2932H57.5001C57.3001 66.2932 57.9 54.7932 61.6 49.1932C60.9 48.3932 59 48.0932 57.6 48.2932Z" fill="#2A6FDB"/>
<path d="M37.5999 76.2932C37.5999 76.2932 31.5999 90.9932 43.9999 90.5932C56.3999 90.1932 52.6999 76.2932 52.6999 76.2932H37.5999Z" fill="#558CE2"/>
<path d="M59.2 112.393L46.7 116.393L35.2 112.293L44.0999 119.693L50.9 119.193L59.2 112.393Z" fill="#1E55BC"/>
<path d="M55.5001 184.593C55.3001 184.593 57.6001 193.493 57.6001 193.493L69.4001 192.293L70.0001 184.093C70.0001 184.093 62.8001 184.793 55.5001 184.593Z" fill="#153F9D"/>
<path d="M68.7001 191.193C68.0001 190.293 67.0001 189.493 65.9001 189.193C65.3001 188.993 64.7 188.993 64.1 188.993C61.2 189.193 57.5001 191.693 57.2001 194.893C57.0001 197.593 57.3001 200.493 57.2001 203.193L71.3 202.993C70.9 199.993 70.8001 196.893 69.9001 193.993C69.6001 192.993 69.2 192.193 68.6 191.393C68.8 191.293 68.7001 191.293 68.7001 191.193Z" fill="#DBDBDB"/>
<path d="M60.8001 197.793C60.8001 197.793 58.1001 189.693 64.5001 189.693C70.9001 189.793 68.6 197.493 68.6 197.493L60.8001 197.793Z" fill="#E2E2E2"/>
<path d="M60.8001 195.693C60.6001 197.093 68.1001 196.293 68.1001 195.393C68.0001 194.593 60.9001 194.193 60.8001 195.693Z" fill="#ABABAB"/>
<path d="M45.1 191.593C44.8 191.193 44.3 190.993 43.8 190.993C43.4 190.993 43 191.193 42.6 191.393C40.7 192.293 38.7 192.693 36.6 192.693C36 192.693 35.4 192.593 35 192.293C34.7 192.093 34.6 191.793 34.4 191.493C33.8 190.593 32.7 190.093 31.6 189.993C30.1 189.993 29.3 190.893 28.4 191.893C23.4 197.293 18 194.593 17.1 197.593C16.6 199.193 16.5 199.993 16.5 200.293C16.6 200.393 16.7 200.493 16.7 200.493C17.5 201.093 19 201.293 19.9 201.593C21.3 201.993 22.8 202.393 24.3 202.693C26.9 203.193 29.8 202.493 32.4 202.093C36.6 201.493 40.9 200.993 45.1 200.893C45.3 200.893 45.7 196.993 45.7 196.693C45.8 195.293 46.1 193.593 45.5 192.293C45.4 191.893 45.3 191.793 45.1 191.593Z" fill="#DBDBDB"/>
<path d="M32.8 200.993C27.9 202.193 21.4 201.993 16.7 199.493C16.4 199.393 16.1 199.493 16 199.793C15.9 200.493 16 200.493 16 200.493C16 200.493 18.4 203.493 26.5 203.493C32.2 203.493 34.7 202.893 35.7 202.393C36 202.293 36.4 202.493 36.4 202.793C36.4 203.093 36.7 203.393 37.1 203.393L44.6 203.093C44.9 203.093 45.6 202.893 45.7 202.493C45.8 201.793 45.9 200.493 45.9 199.293C45.9 199.093 45.7 198.893 45.5 198.893C43.2 198.993 35.6 200.293 32.8 200.993Z" fill="#ABABAB"/>
<path d="M57 200.993C57 200.993 56.6 196.493 64.5 195.993C72.3 195.493 71.5 201.193 71.5 201.193L57 200.993Z" fill="#EAEAEA"/>
<path d="M56.7001 201.493L56.6001 202.693C56.6001 203.293 57.0001 203.693 57.6001 203.693L71.2001 203.193C71.9001 203.193 72.5001 202.593 72.4001 201.893C72.4001 201.093 71.8001 200.293 69.4001 200.293C65.9001 200.393 59.6001 200.593 57.5001 200.693C57.1001 200.693 56.7001 201.093 56.7001 201.493Z" fill="#ABABAB"/>
<path d="M30.3001 184.893C30.1001 184.793 30.3001 189.993 30.3001 189.993C30.3001 189.993 34.3001 193.893 39.5001 193.493C44.7001 193.093 45.5001 192.193 45.5001 192.193L46.9001 185.693C46.9001 185.693 35.5001 186.193 30.3001 184.893Z" fill="#153F9D"/>
<path d="M24.7 198.193C25.9 197.693 25.2 195.393 24.9 194.493C24.3 194.793 23.8 194.993 23.2 195.093C23.2 196.293 23.5 198.693 24.7 198.193Z" fill="#ABABAB"/>
<path d="M27.5999 196.993C28.6999 196.693 27.4999 194.093 26.9999 193.093C26.5999 193.393 26.1999 193.693 25.8999 193.893C25.9999 194.893 26.4999 197.293 27.5999 196.993Z" fill="#ABABAB"/>
<path d="M28.0999 192.193C28.3999 192.693 29.9999 195.493 30.9999 194.693C31.7999 193.993 30.0999 191.993 29.1999 191.093C28.9999 191.293 28.6999 191.593 28.4999 191.893C28.2999 191.993 28.1999 192.093 28.0999 192.193Z" fill="#ABABAB"/>
<path d="M60.8001 193.093C60.6001 194.493 68.1001 193.693 68.1001 192.793C68.0001 191.993 60.9001 191.693 60.8001 193.093Z" fill="#ABABAB"/>
<path d="M44 50.0932C44 51.9932 46.7 52.7932 48.6 52.7932C51.1 52.7932 54.7 51.4932 54.2 48.8932L52.7 39.9932C52.5 38.1932 50.7 36.7932 48.5 36.8932L47.5 36.9932C45.4 37.0932 43.7 38.6932 43.9 40.4932L44 50.0932Z" fill="#F79178"/>
<path d="M32.9 25.5932C34.4 25.3932 35.9 26.7932 36.2 28.8932C36.5 30.8932 35.4999 32.7932 33.9999 32.9932C32.4999 33.1932 31 31.7932 30.7 29.6932C30.4 27.5932 31.4 25.7932 32.9 25.5932Z" fill="#F79178"/>
<path d="M45.4999 8.79318L50.5999 8.89318C57.2999 8.99318 62.7999 16.4932 62.6999 23.1932L62.5999 32.3932C62.4999 39.0932 56.8999 44.5932 50.1999 44.4932L45.0999 44.3932C38.3999 44.2932 32.8999 38.6932 32.9999 31.9932L33.0999 22.7932C33.1999 16.0932 38.7999 8.69318 45.4999 8.79318Z" fill="#F9A184"/>
<path d="M64.5 25.3932C66 25.7932 66.7 27.7932 66.1 29.7932C65.5 31.7932 63.8 32.9932 62.4 32.4932C60.9 32.0932 60.2 30.0932 60.8 28.0932C61.4 26.0932 63 24.9932 64.5 25.3932Z" fill="#F9A184"/>
<path d="M47.2001 42.9932C55.5001 42.8932 60.3001 37.5932 61.5001 29.9932C61.9001 29.9932 62.3001 30.0932 62.7001 29.9932C64.1001 29.8932 65.6001 28.7932 66.2001 27.4932C66.3001 28.1932 66.3 28.8932 66.1 29.6932C65.5 31.4932 64.1001 32.6932 62.7001 32.4932C62.6001 39.1932 57 44.5932 50.3 44.4932L45.2001 44.3932C39.1001 44.2932 34.1 39.7932 33.3 33.8932C35.4 38.5932 37.9001 43.1932 47.2001 42.9932Z" fill="#F79178"/>
<path d="M51.9519 39.2L41.852 39.1C41.252 39.1 40.8519 38.4 41.0519 37.8C42.1519 34.9 44.352 33 46.852 33C49.352 33 51.5519 35 52.7519 37.9C52.9519 38.5 52.5519 39.2 51.9519 39.2Z" fill="white"/>
<path d="M40.7 24.1932C41.6 24.5932 41.9 26.0932 41.4 27.5932C40.9 29.0932 39.7 29.9932 38.8 29.5932C37.9 29.1932 37.6 27.6932 38.1 26.1932C38.7 24.6932 39.8 23.7932 40.7 24.1932Z" fill="#35221A"/>
<path opacity="0.08" d="M41.2 28.0932C40.6 29.2932 39.6 29.8932 38.8 29.5932C37.9 29.1932 37.6 27.6932 38.1 26.1932C38.3 25.6932 38.6 25.1932 38.9 24.7932C39.3 25.4932 40.8 27.6932 41.2 28.0932Z" fill="white"/>
<path d="M55.2 24.6932C56.1 25.0932 56.4 26.5932 55.9 28.0932C55.4 29.5932 54.2 30.4932 53.3 30.0932C52.4 29.6932 52.1 28.1932 52.6 26.6932C53.1 25.1932 54.3 24.2932 55.2 24.6932Z" fill="#35221A"/>
<path opacity="0.08" d="M55.6001 28.5932C55.0001 29.7932 54.0002 30.3932 53.2002 30.0932C52.3002 29.6932 52.0001 28.1932 52.5001 26.6932C52.7001 26.1932 53.0001 25.6932 53.3001 25.2932C53.8001 25.9932 55.3001 28.1932 55.6001 28.5932Z" fill="white"/>
<path d="M33.1001 25.5932C33.1001 25.5932 30.8001 6.49317 48.5001 5.69317C65.8001 4.89317 62.7001 25.6932 62.7001 25.6932C62.7001 25.6932 61.8001 26.0932 61.3001 24.3932C60.3001 20.3932 57.7001 12.8932 54.5001 12.8932C54.5001 12.8932 50.0001 15.0932 46.7001 14.9932C43.1001 14.8932 40.7001 12.8932 40.7001 12.8932C38.0001 12.9932 34.3001 19.8932 33.1001 25.5932Z" fill="#563428"/>
<path d="M62.0999 16.2932C60.6999 14.2932 59.1999 12.4932 57.6999 10.5932C56.6999 10.4932 55.6999 10.4932 54.6999 10.3932C53.8999 10.2932 53.1999 10.1932 52.3999 9.99318C50.5999 9.79318 48.7999 9.69318 47.1999 8.79318C47.0999 8.69318 46.9999 8.69318 46.8999 8.59318C45.5999 8.39318 44.1999 8.19318 42.7999 8.09318C42.4999 8.09318 42.1999 7.99318 41.9999 7.79318C41.7999 7.79318 41.6999 7.79318 41.4999 7.89318C40.0999 8.09318 37.8999 8.19318 36.3999 8.99318C37.7999 11.4932 40.0999 12.1932 40.0999 12.1932C40.0999 12.1932 54.8999 9.89318 57.0999 11.3932C59.2999 12.9932 62.6999 23.7932 62.6999 23.7932C62.6999 23.7932 63.4999 21.8932 64.2999 19.2932C63.4999 18.3932 62.7999 17.2932 62.0999 16.2932Z" fill="#563428"/>
<path d="M33.1 25.5932C33.1 25.5932 30.4 7.49317 37 7.99317C43.6 8.59317 35 15.2932 35 15.2932L33.1 25.5932Z" fill="#563428"/>
<path d="M35.9001 8.09317C30.7001 9.59317 33.1001 25.5932 33.1001 25.5932C34.2001 19.9932 38.0001 12.9932 40.8001 12.8932C40.8001 12.8932 38.2001 11.2932 35.9001 8.09317Z" fill="#472A21"/>
<path opacity="0.1" d="M62.0999 16.2932C60.6999 14.2932 59.2 12.4932 57.7 10.5932C56.7 10.4932 55.7 10.4932 54.7 10.3932C53.9 10.2932 53.2 10.1932 52.4 9.99318C50.6 9.79318 48.8 9.69318 47.2 8.79318C47.1 8.69318 47 8.69318 46.9 8.59318C45.6 8.39318 44.1999 8.19318 42.7999 8.09318C42.4999 8.09318 42.2 7.99318 42 7.79318C41.8 7.79318 41.7 7.79318 41.5 7.89318C39.6 8.09318 35.9999 8.29318 35.0999 10.2932C34.6999 11.0932 34 11.1932 33.4 10.9932C32.1 14.5932 32.4999 20.6932 32.7999 23.7932C37.5999 25.9932 43.4 26.6932 48.4 26.7932C53.2 26.7932 58.1 26.0932 62.7 24.7932C62.7 24.4932 62.7999 24.0932 62.7999 23.5932C63.0999 22.8932 63.6 21.3932 64.2 19.4932C63.5 18.3932 62.7999 17.2932 62.0999 16.2932Z" fill="black"/>
<path d="M57.5 7.59317C57.6 7.59317 57.8 7.59317 57.9 7.59317C58.6 9.99317 55.8 9.09317 52.5 7.39317C54.1 7.39317 55.8 7.49317 57.5 7.59317Z" fill="#563428"/>
<path d="M57.3 17.9932C54.6 15.0932 50.3 14.0932 46.5 13.5932C43.7 13.1932 40.9 13.2932 38.2 13.8932C35.5 12.7932 33.6 11.3932 34 9.79317C35 4.69317 39.2 1.59317 44.2 0.493174C51.3 -1.10683 59.9 1.19317 63.2 7.29317C65.2 10.9932 65.3 15.3932 64.5 19.3932C64.4 19.9932 64.3 20.4932 64.1 21.0932C64 21.2932 63.8 21.3932 63.6 21.2932C60.8 20.1932 59.1 19.3932 58 18.8932C57.8 18.5932 57.6 18.2932 57.3 17.9932Z" fill="#1E55BC"/>
<path opacity="0.15" d="M39.0999 6.49317C42.7999 7.09317 47.2 6.99317 50.4 4.89317C52 3.89317 53.1999 2.39317 53.9999 0.693168C50.7999 -0.106833 47.3 -0.206833 44.2 0.493167C40.7 1.29317 37.6 2.99317 35.7 5.79317C36.8 6.09317 37.9999 6.29317 39.0999 6.49317Z" fill="white"/>
<path d="M28.8 18.0932C28.8 18.0932 29.1 19.7932 32.6 19.7932C32.6 19.7932 35.6001 13.6932 42.2001 14.3932C48.8001 15.1932 52.4001 17.7932 52.4001 17.7932C52.4001 17.7932 40.3 7.79317 35.1 10.5932C29.8 13.4932 28.8 16.2932 28.8 18.0932Z" fill="#081E69"/>
<path d="M62.2 20.6932C62.2 20.6932 53.6 21.9932 50.6 20.0932C47.7 18.1932 46.6 11.9932 39.5 11.5932C32.4 11.1932 28.8 18.0932 28.8 18.0932C28.8 18.0932 27.9 14.7932 32.6 10.5932C37.3 6.39317 55.2 7.49317 62.2 20.6932Z" fill="#2A6FDB"/>
<path d="M28.7999 17.1932C28.7999 17.1932 32.3999 10.2932 39.4999 10.6932C46.5999 11.0932 47.6999 17.2932 50.5999 19.1932C53.0999 20.7932 59.6999 20.0932 61.5999 19.7932C61.7999 20.0932 61.9999 20.3932 62.0999 20.6932C62.0999 20.6932 53.5 21.9932 50.5 20.0932C47.6 18.1932 46.5 11.9932 39.4 11.5932C32.3 11.1932 28.7 18.0932 28.7 18.0932C28.7 18.0932 28.6 17.5932 28.7 16.8932C28.8 17.0932 28.7999 17.1932 28.7999 17.1932Z" fill="#153F9D"/>
<path d="M10.6 85.5932C10.6 85.5932 6.70003 90.7932 10.6 94.8932C14.5 99.0932 18.8 97.5932 20.8 95.5932C22.8 93.4932 10.6 85.5932 10.6 85.5932Z" fill="#ED8C73"/>
<path d="M9.60003 87.0932C9.60003 87.0932 9.20006 85.6932 9.00006 83.8932C8.80006 81.9932 8.00004 82.1932 7.30004 81.4932C6.60004 80.7932 6.50008 79.2932 8.40008 78.7932C10.5001 78.2932 12.5001 83.1932 13.0001 84.7932C13.4001 86.3932 9.60003 87.0932 9.60003 87.0932Z" fill="#ED8C73"/>
<path d="M0.0999756 69.1932L0 70.7932L19.9 95.7932L48.1 97.7932L48.2 96.0932L41.7 69.4932L0.0999756 69.1932Z" fill="#75533F"/>
<path d="M0 70.5932L19.9 97.2932H48.1L41.4 70.9932L0 70.5932Z" fill="#593F2E"/>
<path d="M9.20006 86.7932C8.60006 85.3932 9.70004 83.4932 11.3 83.4932C12.9 83.3932 14.5 82.9932 16.1 82.8932C17.9 82.6932 19.6001 82.5932 21.4001 82.6932C21.9001 82.6932 22.5001 82.7932 22.9001 82.9932C23.4001 83.2932 23.7 83.7932 23.6 84.2932C23.5 84.9932 22.7001 85.5932 23.7001 85.8932C24.5001 86.0932 25.3001 86.1932 25.4001 87.1932C25.5001 87.6932 25.3001 88.1932 24.9001 88.5932C24.6001 88.8932 24.2 88.9932 24.1 89.3932C23.9 89.9932 24.5001 90.4932 24.5001 91.0932C24.4001 92.0932 23.1001 91.9932 22.9001 92.7932C22.8001 93.1932 23.0001 93.5932 22.9001 93.8932C22.8001 94.6932 21.5001 95.1932 20.9001 95.5932C19.5001 96.4932 18.1001 97.2932 16.4001 97.1932C15.5001 97.0932 14.5 96.4932 14.3 95.6932C14.1 95.0932 14.3001 94.3932 14.0001 93.7932C13.5001 92.7932 12.1001 92.5932 11.7001 91.4932C11.5001 90.8932 11.8001 90.1932 11.7001 89.5932C11.5001 88.4932 10.1001 88.0932 9.50005 87.1932C9.30005 87.0932 9.20006 86.8932 9.20006 86.7932Z" fill="#FBA386"/>
<path d="M75.9 78.6932H76.2L76.4 78.8932L108.6 81.6932L101.8 103.293L66.2 111.593L50.2 95.5932L57.0999 72.6932L75.9 78.6932Z" fill="#AA876B"/>
<path d="M56.9 72.6932L75.9 78.6932H76.2L76.4 78.8932L66.2 111.593L50.2 95.5932L56.9 72.6932Z" fill="#BD9B7B"/>
<path d="M108.6 81.6932L73.6999 87.4932L56.8999 72.6932L91.2999 66.5932L108.6 81.6932Z" fill="#D8BA98"/>
<path d="M98.2998 75.2932L104.4 80.3932C104.6 80.5932 104.5 80.9932 104.2 80.9932L91.7998 83.0932C91.6998 83.0932 91.5998 83.0932 91.4998 82.9932L84.5998 77.9932C84.3998 77.7932 84.3999 77.3932 84.6999 77.3932L97.8999 75.2932C98.0999 75.1932 98.1998 75.1932 98.2998 75.2932Z" fill="#E8E1D1"/>
<path d="M74.5 106.593L74.2 108.193C74.2 108.393 74.1 109.893 74.1 110.093C78.9 109.093 83.4 108.593 88.8 106.693C89 105.693 89 104.593 88.8 103.593C88.5 101.993 87.4 100.093 86 99.1932C83.5 98.7932 83 99.2932 80.6 98.4932C80.3 98.4932 79.1 98.4932 78.5 98.7932C75.8 99.8932 74.9 100.793 74.1 102.993C73.3 104.393 73.6 106.193 74.5 106.593Z" fill="#FBA386"/>
<path d="M86.6999 102.093L79.3999 100.193C81.1999 93.1932 82.7999 80.5932 81.9999 75.1932C81.6999 72.6932 70.8999 68.9932 62.3999 61.9932L65.7999 51.9932C69.6999 53.5932 89.4999 62.5932 91.9999 73.1932C94.3999 83.0932 87.4999 100.193 86.6999 102.093Z" fill="#F9A184"/>
<path d="M83.5 60.2932C76.8 55.1932 69.6 50.5932 61.5 48.9932L60.5 63.8932C65.2 67.6932 70.5 70.9932 74.4 73.1932C77.4 68.5932 80.5 64.8932 83.5 60.2932Z" fill="#FC2828"/>
</svg>
