<svg width="48" height="48" viewBox="0 0 48 48" fill="none" xmlns="http://www.w3.org/2000/svg">
<path d="M24 0L35.6823 6.01222L47.4134 11.9756L35.6823 17.9878L24 24L12.3177 17.9878L0.586548 11.9756L12.3177 6.01222L24 0Z" fill="#D9AC80"/>
<path d="M38.6151 21.947V16.5214L32.7495 19.5031V24.9287L35.9756 20.9694L38.6151 21.947Z" fill="#D7BAA4"/>
<path d="M24 24V48L47.4135 36.0244V11.9756L38.6151 16.5214L38.4196 16.6191V21.8982L35.9756 20.9694L32.7495 24.9287V19.5031L24 24Z" fill="#A67E4F"/>
<path d="M24 48V24L12.3177 17.9878L0.586548 11.9756V36.0244L24 48Z" fill="#926E43"/>
<path d="M9.38489 7.47862L32.7495 19.5031L38.4195 16.6192L38.615 16.5214L15.2505 4.49695L12.3177 6.01222L9.38489 7.47862Z" fill="#F2D3BA"/>
</svg>
