<svg width="96" height="53" viewBox="0 0 96 53" fill="none" xmlns="http://www.w3.org/2000/svg">
<path d="M70.0542 8.68835H76.21L76.9223 9.55323L81.6027 21.3561L81.094 22.1701L70.97 22.221L69.2402 17.8966L70.0542 8.68835Z" fill="#BDDFE0"/>
<path d="M29.4054 45.0127H0.966614C0.406995 45.0127 0 44.5548 0 43.9952L0.101749 41.4515C0.101749 40.8919 0.559619 40.434 1.11924 40.434H29.5072C30.0668 40.434 30.4738 40.8919 30.4738 41.4515L30.372 43.9952C30.372 44.5548 29.9142 45.0127 29.4054 45.0127Z" fill="#2B2B2B"/>
<path d="M84.8075 38.1447C87.5039 38.1447 89.5897 41.2989 89.488 45.2162C89.3354 49.1335 87.046 52.0843 84.3497 52.0843C81.6533 52.0843 79.5675 49.1335 79.6692 45.2162C79.771 41.3498 82.0603 38.1447 84.8075 38.1447Z" fill="#323231"/>
<path d="M84.2989 52.1351H80.1272L80.5851 38.1447H84.8076L84.2989 52.1351Z" fill="#323231"/>
<path d="M80.5851 38.1447C83.2815 38.1447 85.3673 41.2989 85.2656 45.2162C85.1129 49.1335 82.8236 52.0843 80.1273 52.0843C77.4309 52.0843 75.3451 49.1335 75.4468 45.2162C75.5994 41.3498 77.8888 38.1447 80.5851 38.1447Z" fill="#414141"/>
<path d="M80.4832 40.4849C82.3146 40.4849 83.6883 42.6216 83.6374 45.2671C83.5356 47.9125 82.0094 50.0493 80.1779 50.0493C78.3464 50.0493 76.9728 47.9125 77.0237 45.2671C77.1255 42.6216 78.7026 40.4849 80.4832 40.4849Z" fill="#282828"/>
<path d="M45.2275 38.1447C47.9238 38.1447 50.0097 41.2989 49.9079 45.1653C49.7553 49.0318 47.4659 51.9825 44.7696 51.9825C42.0732 51.9825 39.9874 49.0318 40.0891 45.1653C40.2418 41.2989 42.5311 38.1447 45.2275 38.1447Z" fill="#323231"/>
<path d="M44.7696 51.9316H41.5645L41.0558 38.1447H45.2275L44.7696 51.9316Z" fill="#323231"/>
<path d="M41.8186 38.1447C44.515 38.1447 46.6008 41.2989 46.4991 45.1653C46.3465 49.0318 44.0571 51.9825 41.3608 51.9825C38.6644 51.9825 36.5786 49.0318 36.6803 45.1653C36.7821 41.2989 39.1223 38.1447 41.8186 38.1447Z" fill="#414141"/>
<path d="M40.9538 40.434C42.7852 40.434 44.1588 42.5707 44.108 45.1653C44.0571 47.7599 42.48 49.8967 40.6485 49.8967C38.817 49.8967 37.4434 47.7599 37.4943 45.1653C37.596 42.5707 39.1223 40.434 40.9538 40.434Z" fill="#282828"/>
<path d="M54.2321 42.876H80.4325C81.1447 42.876 81.7552 43.4865 81.7043 44.1987L81.6535 46.0811C81.6535 46.7933 80.9921 47.4038 80.2798 47.4038H54.0795C53.3673 47.4038 52.7568 46.7933 52.8077 46.0811L52.8585 44.1987C52.9094 43.4356 53.5199 42.876 54.2321 42.876Z" fill="#353535"/>
<path d="M15.1096 42.876H41.3099C42.0222 42.876 42.6326 43.4865 42.5818 44.1987L42.5309 46.0811C42.5309 46.7933 41.8695 47.4038 41.1573 47.4038H14.957C14.2447 47.4038 13.6342 46.7933 13.6851 46.0811L13.736 44.1987C13.736 43.4356 14.3973 42.876 15.1096 42.876Z" fill="#353535"/>
<path d="M79.9746 22.9332H82.1622C82.5692 22.9332 82.9254 23.2893 82.9254 23.6963V23.7472C82.9254 24.1542 82.5692 24.5103 82.1114 24.5103H79.9238C79.5168 24.5103 79.1606 24.1542 79.1606 23.7472V23.6963C79.1606 23.2893 79.5168 22.9332 79.9746 22.9332Z" fill="#3D3D3D"/>
<path d="M80.0254 19.0667H83.4848C83.8409 19.0667 84.0953 19.4229 84.0953 19.8299L84.0444 21.8648C84.0444 22.2718 83.7392 22.628 83.3831 22.628H79.9236C79.5675 22.628 79.3131 22.2718 79.3131 21.8648L79.364 19.8299C79.4149 19.4229 79.6692 19.0667 80.0254 19.0667Z" fill="#3D3D3D"/>
<path d="M4.93482 4.21143C1.47536 14.6916 1.42449 36.6184 1.78061 41.5024C1.88236 42.5707 10.2766 43.5882 11.345 43.5882H64.2035L86.3848 41.0445L94.5756 40.7393L94.9317 30.5135C94.9826 29.089 94.1686 27.868 92.8458 27.3593L84.655 24.2051C84.0954 24.0016 83.6376 23.5437 83.4341 22.9841L76.0573 3.19394C75.345 2.02383 74.124 1.15896 72.6996 1.15896L48.9921 1.10808H48.0763L7.68204 0.95546C6.46105 0.95546 5.34182 3.09219 4.93482 4.21143ZM69.8506 9.24799C69.9015 9.14624 70.0032 9.04449 70.105 8.94274C70.2576 8.79012 70.4611 8.6375 70.7155 8.53575C71.0716 8.38313 71.4277 8.48487 71.6312 8.68837C71.7329 8.6375 71.8347 8.58662 71.9364 8.58662C72.6487 8.434 73.4118 8.48487 74.124 8.58662C74.531 8.6375 74.938 8.6375 75.345 8.68837C76.1081 8.6375 76.8204 9.19711 76.9221 9.96023C76.973 10.0111 76.973 10.1129 77.0239 10.1637C77.2274 10.7234 77.38 11.283 77.5326 11.8426C77.6344 11.9443 77.7361 12.0461 77.787 12.1987C77.8887 12.6057 78.0414 12.9618 78.1431 13.3688C78.5501 14.4881 78.8554 15.6582 79.3641 16.7265C79.9746 17.9984 80.4325 19.3211 80.8395 20.6947C81.3991 21.1526 81.0938 22.1192 80.4325 22.3227C80.2798 22.3736 80.1272 22.4245 79.9746 22.4245H79.9237C79.8728 22.4245 79.7711 22.4245 79.7202 22.3736C77.787 22.628 75.9555 22.221 74.0223 22.3227C72.8013 22.4245 70.9698 22.7806 70.2067 21.6105C69.9523 21.2544 69.8506 20.7965 69.8506 20.3386C69.698 20.186 69.5962 19.9316 69.6471 19.5755C69.7488 18.965 69.6471 18.4054 69.6471 17.744C69.6471 17.1335 69.698 16.523 69.7488 15.9125C69.8506 14.7933 69.8506 13.7758 69.6471 12.6566C69.3927 11.6391 69.1892 10.1637 69.8506 9.24799Z" fill="#FFAF2E"/>
<path d="M7.275 11.2829H47.1097C48.1272 13.267 49.9078 14.8442 51.3322 16.523C53.1637 18.6597 55.0461 20.7456 57.0302 22.6788C60.3879 25.8839 64.1017 29.1907 66.0858 33.4642C66.1876 33.8203 66.3911 34.2273 66.6455 34.5834C67.4594 35.6009 67.6629 36.6693 67.9173 38.0938C68.1717 39.7726 68.2734 41.5024 68.2734 43.1812L64.2035 43.6391H11.345C10.2257 43.6391 1.88231 42.6725 1.78056 41.5532C1.42444 36.6693 1.17007 23.6963 4.62953 13.2162C5.03652 12.0461 6.10489 11.2829 7.275 11.2829Z" fill="#2B2B2B"/>
<path d="M6.46105 0.955455L49.3482 1.10808C50.5692 1.10808 51.6884 1.97295 52.248 3.04131C52.9603 4.41492 58.6582 18.6598 60.3371 22.7806C60.6423 23.4928 61.2019 24.0524 61.8633 24.3068L69.7488 27.3084C71.1224 27.8172 71.9873 29.1399 71.9364 30.6152L71.5803 40.7393L63.2369 41.3498C63.2369 41.3498 62.2194 37.0763 56.3689 37.1272C49.8569 37.178 49.1956 43.5882 49.1956 43.5882H24.5723C24.5723 43.5882 22.283 37.7885 17.6534 37.7885C13.0239 37.7885 12.0572 43.5882 12.0572 43.5882H3.61209C2.49285 43.5882 1.62798 42.6216 1.52623 41.5532C1.17011 36.6693 1.17011 15.302 3.71383 4.26229C4.01908 3.04131 4.7822 0.853706 6.46105 0.955455Z" fill="#ED9914"/>
<path d="M94.9826 40.2305C95.5423 40.2305 96.0001 40.6884 96.0001 41.248L95.8984 43.5373C95.8984 44.2496 95.2879 44.8092 94.5756 44.8092L71.733 45.1145L71.9874 40.1288L94.9826 40.2305Z" fill="#474747"/>
<path d="M46.4992 8.53577L50.8744 8.58664C51.1796 8.58664 51.4849 8.79014 51.5866 9.04451L56.3179 20.7456C56.5214 21.2544 56.1144 21.8649 55.5548 21.8649H46.0413C45.5834 21.8649 45.2782 21.5087 45.2782 21.0509L45.6852 9.29888C45.6852 8.89189 46.0413 8.53577 46.4992 8.53577Z" fill="#3D3D3D"/>
<path d="M50.213 12.504H53.0111L56.3688 20.7965C56.5723 21.3052 56.1653 21.9157 55.6057 21.9157H48.9412L49.2464 13.5214C49.1447 12.9618 49.6534 12.504 50.213 12.504Z" fill="#474646"/>
<path d="M56.8266 8.58661L70.7662 8.63749C70.5118 8.79011 70.3083 9.04448 70.3083 9.34973L69.9013 21.1017C69.9013 21.5596 70.2574 21.9666 70.7153 21.9666H73.1064C73.0555 22.0175 73.0555 22.0683 73.0046 22.1701L61.6596 22.0683C61.4561 22.0683 61.2526 21.9157 61.1509 21.7122L56.3178 9.34973C56.1143 8.9936 56.4196 8.58661 56.8266 8.58661Z" fill="#3D3D3D"/>
<path d="M72.3435 14.3863L73.5136 20.9491L61.1511 21.7122L57.4373 12.6057H70.1559C71.2751 12.5548 72.1908 13.3179 72.3435 14.3863Z" fill="#474646"/>
<path d="M73.5136 18.4054C75.6504 18.4054 77.3801 19.4737 77.9397 20.9491C77.5836 20.9491 77.2783 20.9491 76.9222 20.9491C76.3626 19.9825 75.0399 19.3211 73.4628 19.3211C72.3944 19.3211 71.2752 19.9316 70.7664 20.6439C70.5629 20.3895 70.0542 20.7456 69.7998 20.5421C70.3085 19.2702 72.1909 18.4054 73.5136 18.4054Z" fill="#515151"/>
<g opacity="0.08">
<path opacity="0.08" d="M76.4643 19.2194C74.9381 19.5246 73.3609 19.2702 71.8347 18.7615C72.3943 18.5071 73.0048 18.4054 73.5136 18.4054C74.6328 18.4054 75.6503 18.7106 76.4643 19.2194Z" fill="white"/>
</g>
<path d="M50.0596 43.4865C50.0596 43.4865 50.5679 43.9948 49.8563 43.9948C49.0939 43.9948 49.1955 43.5881 49.1955 43.5881L50.0596 43.4865Z" fill="#2B2B2B"/>
<path d="M60.8966 21C60.6422 21.5596 61.0492 22.221 61.6597 22.221L80.2289 22.0175C80.5341 22.0175 81.0937 22.1701 81.1955 21.9666L80.9411 20.4404C79.6184 19.6264 60.8966 21 60.8966 21Z" fill="#6D6D6D"/>
<path d="M12.8705 43.4865C12.8705 43.4865 13.5313 43.9948 12.7689 43.9948C11.9557 43.9948 12.1081 43.5373 12.1081 43.5373L12.8705 43.4865Z" fill="#2B2B2B"/>
<path d="M63.6106 45.4253C63.8631 41.556 61.8858 38.2769 59.1942 38.1012C56.5025 37.9255 54.1157 40.9198 53.8632 44.789C53.6106 48.6583 55.5879 51.9374 58.2796 52.1131C60.9712 52.2888 63.358 49.2945 63.6106 45.4253Z" fill="#323231"/>
<path d="M58.5057 52.1351H54.334L54.7919 38.1447H58.9636L58.5057 52.1351Z" fill="#323231"/>
<path d="M59.4137 45.4529C59.6663 41.5836 57.689 38.3045 54.9973 38.1288C52.3057 37.9531 49.9189 40.9473 49.6663 44.8166C49.4137 48.6858 51.391 51.9649 54.0827 52.1406C56.7743 52.3163 59.1611 49.3221 59.4137 45.4529Z" fill="#414141"/>
<path d="M54.6899 40.434C56.5213 40.434 57.895 42.5199 57.7932 45.1653C57.6915 47.7599 56.1652 49.8967 54.3337 49.8967C52.5023 49.8967 51.1287 47.8108 51.2304 45.1653C51.3322 42.5199 52.9093 40.434 54.6899 40.434Z" fill="#323231"/>
<path d="M54.6899 41.3497C56.1653 41.3497 57.2845 43.0286 57.1828 45.1145C57.1319 47.2003 55.86 48.8792 54.4356 48.8792C52.9602 48.8792 51.841 47.2003 51.9427 45.1145C51.9936 43.0286 53.2146 41.3497 54.6899 41.3497Z" fill="#C8CAC4"/>
<path d="M56.8752 45.2871C56.9978 43.4086 56.0517 41.8175 54.7619 41.7333C53.4722 41.6491 52.3272 43.1037 52.2046 44.9823C52.082 46.8608 53.0281 48.4519 54.3179 48.5361C55.6076 48.6203 56.7526 47.1657 56.8752 45.2871Z" fill="#C8CAC4"/>
<path d="M54.639 41.7567C54.7408 41.7567 54.8425 41.7567 54.9443 41.8076C53.7742 42.0111 52.8584 43.4356 52.7567 45.1653C52.7058 46.8951 53.5707 48.3196 54.6899 48.5231C54.5881 48.5231 54.4864 48.5739 54.3846 48.5739C53.0619 48.5739 52.0444 47.0477 52.1462 45.1653C52.2479 43.2321 53.3672 41.7567 54.639 41.7567Z" fill="#AFAFAD"/>
<path d="M55.4531 41.9602C55.7584 42.062 55.911 42.3672 55.8601 42.5198C55.8092 42.7233 55.504 42.7742 55.1987 42.6725C54.8935 42.5707 54.7409 42.2655 54.7917 42.1129C54.8935 41.9094 55.1479 41.8585 55.4531 41.9602Z" fill="#414141"/>
<path d="M56.5723 44.6057C56.7758 44.6057 56.9793 44.911 56.9793 45.2671C56.9793 45.6232 56.7758 45.9285 56.5723 45.9285C56.3688 45.9285 56.1653 45.6232 56.1653 45.2671C56.1653 44.8601 56.3688 44.6057 56.5723 44.6057Z" fill="#414141"/>
<path d="M54.9952 47.6073C55.3004 47.5056 55.6057 47.6073 55.6566 47.8108C55.7074 48.0652 55.5039 48.3195 55.1987 48.4213C54.8935 48.523 54.5882 48.4213 54.5373 48.2178C54.4865 48.0143 54.69 47.709 54.9952 47.6073Z" fill="#414141"/>
<path d="M52.9603 46.8442C53.1129 47.1494 53.1637 47.4038 53.1129 47.5056C53.0111 47.5564 52.8585 47.4038 52.7059 47.0986C52.5533 46.7933 52.5024 46.539 52.5533 46.4372C52.655 46.3863 52.8076 46.539 52.9603 46.8442Z" fill="#414141"/>
<path d="M53.2141 42.7742C53.265 42.8251 53.2141 43.0792 53.0617 43.3842C52.9092 43.6383 52.7567 43.8416 52.655 43.7908C52.6042 43.7399 52.655 43.4858 52.8075 43.1809C52.96 42.9267 53.1125 42.7234 53.2141 42.7742Z" fill="#414141"/>
<path d="M54.3845 43.7402C54.9441 43.7402 55.3511 44.3507 55.3511 45.1647C55.3003 45.9278 54.8424 46.5891 54.2828 46.5891C53.7232 46.5891 53.3162 45.9787 53.3162 45.1647C53.367 44.3507 53.8758 43.7402 54.3845 43.7402Z" fill="#414141"/>
<path d="M55.6054 45.5723C55.7071 45.5723 55.8087 45.674 55.8087 45.8264C55.8087 45.9789 55.7071 46.0806 55.6054 46.0806C55.5038 46.0806 55.4021 45.9789 55.4021 45.8264C55.4021 45.674 55.5038 45.5723 55.6054 45.5723Z" fill="#414141"/>
<path d="M55.6564 44.3005C55.7581 44.3005 55.8597 44.4021 55.8597 44.5546C55.8597 44.7071 55.7581 44.8087 55.6564 44.8087C55.5548 44.8087 55.4531 44.7071 55.4531 44.5546C55.4531 44.4021 55.5548 44.3005 55.6564 44.3005Z" fill="#414141"/>
<path d="M55.0969 43.3847C55.1985 43.3847 55.3002 43.4864 55.3002 43.6389C55.3002 43.7913 55.1985 43.893 55.0969 43.893C54.9952 43.893 54.8936 43.7913 54.8936 43.6389C54.8936 43.5372 54.9952 43.3847 55.0969 43.3847Z" fill="#414141"/>
<path d="M54.4354 43.0286C54.537 43.0286 54.6387 43.1302 54.6387 43.2827C54.6387 43.4352 54.537 43.5369 54.4354 43.5369C54.3337 43.5369 54.2321 43.4352 54.2321 43.2827C54.2321 43.1302 54.3337 43.0286 54.4354 43.0286Z" fill="#414141"/>
<path d="M53.6719 43.486C53.7735 43.486 53.8752 43.5877 53.8752 43.7402C53.8752 43.8927 53.7735 43.9943 53.6719 43.9943C53.5702 43.9943 53.4685 43.8927 53.4685 43.7402C53.4177 43.5877 53.5194 43.486 53.6719 43.486Z" fill="#414141"/>
<path d="M53.2145 44.3005C53.3162 44.3005 53.4178 44.4021 53.4178 44.5546C53.4178 44.7071 53.3162 44.8087 53.2145 44.8087C53.1129 44.8087 53.0112 44.7071 53.0112 44.5546C53.0112 44.4021 53.1129 44.3005 53.2145 44.3005Z" fill="#414141"/>
<path d="M53.3767 45.818C53.3897 45.6782 53.3096 45.5565 53.1978 45.5461C53.086 45.5357 52.9848 45.6405 52.9718 45.7803C52.9588 45.92 53.0389 46.0417 53.1507 46.0522C53.2625 46.0626 53.3637 45.9577 53.3767 45.818Z" fill="#414141"/>
<path d="M53.6213 46.4372C53.723 46.4372 53.8246 46.5388 53.8246 46.6913C53.8246 46.8438 53.723 46.9455 53.6213 46.9455C53.5197 46.9455 53.418 46.8438 53.418 46.6913C53.3672 46.5897 53.4688 46.4372 53.6213 46.4372Z" fill="#414141"/>
<path d="M54.3848 46.8442C54.4865 46.8442 54.5881 46.9458 54.5881 47.0983C54.5881 47.2508 54.4865 47.3524 54.3848 47.3524C54.2832 47.3524 54.1815 47.2508 54.1815 47.0983C54.1815 46.9458 54.2323 46.8442 54.3848 46.8442Z" fill="#414141"/>
<path d="M55.0969 46.4372C55.1985 46.4372 55.3002 46.5388 55.3002 46.6913C55.3002 46.8438 55.1985 46.9455 55.0969 46.9455C54.9952 46.9455 54.8936 46.8438 54.8936 46.6913C54.8936 46.5897 54.9952 46.4372 55.0969 46.4372Z" fill="#414141"/>
<path d="M26.2718 45.3602C26.5159 41.5466 24.5771 38.3183 21.9412 38.1496C19.3053 37.9809 16.9707 40.9356 16.7266 44.7492C16.4824 48.5627 18.4213 51.791 21.0572 51.9597C23.693 52.1285 26.0277 49.1737 26.2718 45.3602Z" fill="#323231"/>
<path opacity="0.22" d="M79.6185 22.221L71.326 22.1192C71.326 22.1192 59.167 8.73926 59.0144 8.53577H67.7648L79.6185 22.221Z" fill="white"/>
<path opacity="0.11" d="M55.5549 21.7122H50.1114L45.4818 16.3704L45.7362 9.45149L56.3689 21.1017C56.3181 21.5087 55.9619 21.7122 55.5549 21.7122Z" fill="white"/>
<path d="M80.7377 22.628C80.7377 22.628 80.6868 22.628 80.7377 22.628L61.6598 22.4245C61.3037 22.4245 60.9476 22.1701 60.7949 21.8648L55.9619 9.50236C55.8601 9.19711 55.911 8.89187 56.0636 8.6375C56.2671 8.38312 56.5215 8.2305 56.8776 8.2305L76.2608 8.33225C76.6678 8.33225 76.973 8.58662 77.1256 8.94274L81.6535 21.407C81.7552 21.7122 81.7043 22.0175 81.5517 22.2718C81.2973 22.4753 81.043 22.628 80.7377 22.628ZM56.8267 8.94274C56.725 8.94274 56.6741 8.99362 56.6741 9.04449C56.6741 9.09537 56.6232 9.14624 56.6741 9.19711L61.5072 21.5596C61.5072 21.6105 61.5581 21.6613 61.6598 21.6613L80.7377 21.8648C80.8395 21.8648 80.8903 21.814 80.8903 21.7631C80.8903 21.7122 80.9412 21.6613 80.8903 21.6105L76.3625 9.14624C76.3625 9.09537 76.3116 9.04449 76.2099 9.04449L56.8267 8.94274Z" fill="#3A3A3A"/>
<path d="M21.2655 51.9316H17.1447L17.6025 38.1447H21.7234L21.2655 51.9316Z" fill="#323231"/>
<path d="M22.1666 45.3768C22.4107 41.5633 20.4718 38.335 17.836 38.1663C15.2001 37.9975 12.8655 40.9523 12.6213 44.7658C12.3772 48.5794 14.3161 51.8077 16.9519 51.9764C19.5878 52.1452 21.9225 49.1904 22.1666 45.3768Z" fill="#414141"/>
<path d="M17.5517 40.3831C19.3323 40.3831 20.706 42.469 20.6042 45.0127C20.5025 47.6073 19.0271 49.6423 17.2465 49.6423C15.4659 49.6423 14.0923 47.5564 14.194 45.0127C14.2449 42.469 15.7711 40.3831 17.5517 40.3831Z" fill="#323231"/>
<path d="M17.5007 41.2989C18.9252 41.2989 19.9935 42.9777 19.9427 45.0127C19.8918 47.0477 18.6708 48.7265 17.2463 48.7265C15.8218 48.7265 14.7535 47.0477 14.8044 45.0127C14.8552 42.9777 16.0762 41.2989 17.5007 41.2989Z" fill="#C8CAC4"/>
<path d="M17.5007 41.2989C18.9252 41.2989 19.9935 42.9777 19.9427 45.0127C19.8918 47.0477 18.6708 48.7265 17.2463 48.7265C15.8218 48.7265 14.7535 47.0477 14.8044 45.0127C14.8552 42.9777 16.0762 41.2989 17.5007 41.2989Z" fill="#C8CAC4"/>
<path d="M17.3481 41.8076C17.6534 41.8076 17.9077 41.9094 18.1621 42.0111C17.2973 42.469 16.6868 43.6391 16.6359 45.0127C16.585 46.3863 17.1446 47.5564 17.9586 48.0143C17.7042 48.1669 17.4499 48.2178 17.1446 48.2178C15.9236 48.2178 14.957 46.7933 15.0079 45.0127C15.0588 43.2321 16.1271 41.8076 17.3481 41.8076Z" fill="#8C8C8C"/>
<path d="M18.5693 43.4865C19.1798 43.4865 19.6376 44.1987 19.6376 45.0636C19.6376 45.9285 19.078 46.6407 18.4675 46.6407C17.857 46.6407 17.3992 45.9285 17.3992 45.0636C17.3992 44.1987 17.9588 43.4865 18.5693 43.4865Z" fill="#414141"/>
<path d="M19.8917 45.5215C19.8917 45.7248 19.8409 45.8773 19.7901 46.0806C19.6884 46.0297 19.6376 45.9281 19.6376 45.8264C19.6884 45.674 19.7901 45.5215 19.8917 45.5215Z" fill="#414141"/>
<path d="M19.8917 44.1478C19.9426 44.3512 19.9426 44.5036 19.9426 44.7069C19.7901 44.7069 19.7393 44.5545 19.7393 44.402C19.7393 44.3003 19.7901 44.1987 19.8917 44.1478Z" fill="#414141"/>
<path d="M19.3321 43.1304C19.4846 43.1304 19.5354 43.2829 19.5354 43.4353C19.5354 43.5878 19.4338 43.7403 19.2813 43.7403C19.1288 43.7403 19.078 43.5878 19.078 43.4353C19.1288 43.232 19.2305 43.1304 19.3321 43.1304Z" fill="#414141"/>
<path d="M18.6199 42.6725C18.7723 42.6725 18.8232 42.825 18.8232 42.9774C18.8232 43.1299 18.7215 43.2824 18.569 43.2824C18.4165 43.2824 18.3657 43.1299 18.3657 42.9774C18.3657 42.825 18.4674 42.6725 18.6199 42.6725Z" fill="#414141"/>
<path d="M17.7549 43.1812C17.9073 43.1812 17.9582 43.3337 17.9582 43.4862C17.9582 43.6387 17.8565 43.7912 17.704 43.7912C17.5516 43.7912 17.5007 43.6387 17.5007 43.4862C17.5007 43.3337 17.6024 43.1812 17.7549 43.1812Z" fill="#414141"/>
<path d="M67.8665 32.0906H94.2195C94.7791 32.0906 95.237 32.5485 95.237 33.159L95.0843 37.4324C95.0843 38.0938 94.4738 38.6534 93.8125 38.6534H90.76C90.5565 38.6534 90.4039 38.7552 90.353 38.9587L90.2004 39.4165C90.1495 39.5691 89.946 39.7218 89.7934 39.7218H78.3466C78.1432 39.7218 77.9905 39.62 77.9397 39.4165L77.787 38.9587C77.7362 38.806 77.5835 38.6534 77.38 38.6534H68.477C68.1209 38.6534 67.8665 38.3482 67.8156 38.0429L67.1543 32.9046C67.1034 32.3959 67.4595 32.0906 67.8665 32.0906Z" fill="#474747"/>
<path d="M17.2462 44.1478C17.3987 44.1478 17.4495 44.3003 17.4495 44.4528C17.4495 44.6053 17.3479 44.7578 17.1954 44.7578C17.0429 44.7578 16.9921 44.6053 16.9921 44.4528C16.9921 44.2495 17.0937 44.1478 17.2462 44.1478Z" fill="#414141"/>
<path d="M17.1953 45.5215C17.3478 45.5215 17.3986 45.674 17.3986 45.8264C17.3986 45.9789 17.297 46.1314 17.1445 46.1314C16.992 46.1314 16.9412 45.9789 16.9412 45.8264C16.9412 45.674 17.0428 45.5215 17.1953 45.5215Z" fill="#414141"/>
<path d="M17.6533 46.5389C17.8058 46.5389 17.8566 46.6914 17.8566 46.8439C17.8566 46.9964 17.755 47.1489 17.6025 47.1489C17.45 47.1489 17.3992 46.9964 17.3992 46.8439C17.45 46.6914 17.5517 46.5389 17.6533 46.5389Z" fill="#414141"/>
<path d="M18.5181 46.9968C18.6705 46.9968 18.7214 47.1493 18.7214 47.3018C18.7214 47.4542 18.6197 47.6067 18.4672 47.6067C18.3147 47.6067 18.2639 47.4542 18.2639 47.3018C18.3147 47.0985 18.4164 46.9968 18.5181 46.9968Z" fill="#414141"/>
<path d="M47.1097 43.1304H43.8029C43.4467 43.1304 43.1415 42.9777 42.8871 42.7234C42.6328 42.469 42.531 42.1637 42.531 41.8076L43.6502 8.02702C43.6502 7.31478 44.2607 6.75516 44.973 6.75516H51.6375C52.1463 6.75516 52.6041 7.0604 52.8076 7.51827L57.8442 19.6773C57.8951 19.8299 57.946 20.0334 57.946 20.2369L57.539 32.2941C57.539 32.9555 56.9793 33.5151 56.318 33.566C51.1797 34.1256 48.9412 40.3323 48.3307 42.2146C48.2289 42.7234 47.7202 43.1304 47.1097 43.1304ZM44.973 7.51827C44.6677 7.51827 44.4134 7.77264 44.4134 8.07789L43.2941 41.8585C43.2941 42.0111 43.345 42.1129 43.4467 42.2146C43.5485 42.3164 43.6502 42.3672 43.8029 42.3672H47.1097C47.3641 42.3672 47.5676 42.2146 47.6693 41.9602C48.2798 39.9761 50.7218 33.4134 56.2671 32.8029C56.5723 32.752 56.7758 32.5485 56.7758 32.2432L57.1828 20.186C57.1828 20.0843 57.1828 20.0334 57.132 19.9825L52.0954 7.82352C51.9936 7.62002 51.841 7.51827 51.6375 7.51827H44.973Z" fill="#D6850D"/>
<path d="M19.332 46.5389C19.4336 46.5389 19.5353 46.6406 19.5353 46.8439C19.4845 46.9456 19.4845 46.9964 19.4336 47.098C19.3828 47.1489 19.332 47.1489 19.332 47.1489C19.1795 47.1489 19.1287 46.9964 19.1287 46.8439C19.1287 46.6914 19.2303 46.5389 19.332 46.5389Z" fill="#414141"/>
<path opacity="0.25" d="M17.5008 41.2989C18.9253 41.2989 19.9936 42.9777 19.9428 45.0127C19.8919 45.9284 19.6375 46.7933 19.2305 47.4038C18.1622 46.1828 16.4324 44.911 14.8044 45.2162C14.8044 45.1145 14.8044 45.0636 14.8044 44.9618C14.8553 42.9777 16.0763 41.2989 17.5008 41.2989Z" fill="black"/>
<path d="M18.3147 36.0079C19.8918 35.9571 21.7233 36.4658 23.3004 37.7377C24.7249 38.9078 25.9459 40.7393 26.6072 43.5882L25.4371 43.7917C24.7758 43.8935 24.1653 43.5882 23.9109 42.9777C23.1478 41.1971 21.1637 37.7885 17.7042 37.7885C13.0746 37.7885 12.108 43.5882 12.108 43.5882C12.108 43.5882 12.922 36.1606 18.3147 36.0079Z" fill="#FFAF2E"/>
<path d="M69.5964 33.1081H76.5662C76.9223 33.1081 77.1767 33.3625 77.1767 33.7186L77.0749 36.7711C77.0749 37.1272 76.7697 37.3815 76.4645 37.3815H69.9525C69.6473 37.3815 69.3929 37.1781 69.3929 36.8728L68.9859 33.8203C68.8842 33.4642 69.1894 33.1081 69.5964 33.1081Z" fill="#F2F2F2"/>
<path d="M69.5964 33.1081H71.784L71.6314 37.3815H69.9525C69.6473 37.3815 69.3929 37.1781 69.3929 36.8728L68.9859 33.8203C68.8842 33.4642 69.1894 33.1081 69.5964 33.1081Z" fill="#EA5615"/>
<path d="M92.337 33.1081H94.7281C95.1351 33.1081 95.4404 33.4133 95.4404 33.8203L95.3386 36.6693C95.3386 37.0763 94.9825 37.3815 94.6264 37.3815H91.8792C91.523 37.3815 91.2687 37.1272 91.2687 36.7711L91.523 33.6168C91.5739 33.2607 91.9809 33.1081 92.337 33.1081Z" fill="#F2F2F2"/>
<path d="M94.5755 37.6359H91.8283C91.6248 37.6359 91.3705 37.5342 91.2178 37.3815C91.0652 37.2289 90.9635 37.0254 91.0143 36.771L91.2687 33.7186C91.2687 33.2607 91.6757 32.9046 92.1336 32.9046H94.6773C94.9317 32.9046 95.186 33.0063 95.3387 33.2098C95.4913 33.4133 95.593 33.6168 95.593 33.8712L95.4913 36.7202C95.5422 37.2289 95.0843 37.6359 94.5755 37.6359ZM92.1844 33.3625C91.9809 33.3625 91.7774 33.5151 91.7774 33.7186L91.5231 36.771C91.5231 36.8728 91.5739 36.9745 91.6248 37.0254C91.6757 37.0763 91.7774 37.1272 91.8792 37.1272H94.6264C94.8808 37.1272 95.1352 36.9237 95.1352 36.6693L95.2369 33.8203C95.2369 33.6677 95.186 33.566 95.0843 33.4642C94.9825 33.3625 94.8808 33.3116 94.7282 33.3116H92.1844V33.3625Z" fill="#353535"/>
<path d="M78.8552 32.9046H89.7423C90.1493 32.9046 90.4546 33.2607 90.4037 33.6168L89.7423 38.399C89.6914 38.7551 89.3862 39.0095 89.0809 39.0095H79.2622C78.9061 39.0095 78.6517 38.7551 78.6008 38.399L78.1429 33.6677C78.1429 33.2607 78.4482 32.9046 78.8552 32.9046Z" fill="#353535"/>
<path d="M90.5564 34.4817H77.9396L77.9905 33.8203H90.5564V34.4817Z" fill="#474747"/>
<path d="M90.5057 36.3641H77.8888V35.7027H90.5057V36.3641Z" fill="#474747"/>
<path d="M90.4039 38.2464H77.8379V37.5851H90.4547L90.4039 38.2464Z" fill="#474747"/>
<path d="M77.4817 41.7567H91.4213C91.6248 41.7567 91.7774 41.9094 91.7774 42.1129V42.6216C91.7774 42.8251 91.5739 42.9777 91.3704 42.9777H77.4308C77.2273 42.9777 77.0747 42.8251 77.0747 42.6216V42.1129C77.1256 41.9094 77.2782 41.7567 77.4817 41.7567Z" fill="#353535"/>
<path d="M60.5914 34.9396C62.8807 35.9062 64.6613 38.9078 64.814 41.0445L61.4563 41.3498C61.4563 41.3498 60.2353 37.178 55.6566 37.2289C50.5183 37.2798 49.1447 43.5882 49.1447 43.5882C49.1447 43.5882 49.399 39.6709 51.6375 37.0254C53.3164 34.9396 56.9284 33.4133 60.5914 34.9396Z" fill="#FFAF2E"/>
<path d="M60.9984 40.6375L72.0381 40.1288C72.5977 40.1288 73.0556 40.6884 73.0556 41.248L72.9538 43.3847C72.9538 44.097 72.2925 45.1145 71.5802 45.1145H71.3767L61.7106 44.8092C61.2019 44.8092 60.744 44.911 60.6931 44.4022C60.5914 43.7917 60.5914 41.6041 60.5405 41.248C60.4387 40.9428 60.6931 40.6884 60.9984 40.6375Z" fill="#3D3D3D"/>
<path d="M45.4308 25.5278H45.6852C45.9395 25.5278 46.1939 25.7313 46.1939 25.9857L46.0922 29.4451C46.0922 29.6995 45.8378 29.903 45.5834 29.903H45.3291C45.0747 29.903 44.8203 29.6995 44.8203 29.4451L44.9221 25.9857C44.9221 25.7822 45.1256 25.5278 45.4308 25.5278Z" fill="#3D3D3D"/>
<path d="M55.5548 22.2718H46.0413C45.7361 22.2718 45.4308 22.1701 45.2273 21.9157C45.0238 21.7122 44.8712 21.407 44.9221 21.0509L45.3291 9.29887C45.3291 8.6375 45.8887 8.12875 46.5501 8.12875L50.9253 8.17962C51.3831 8.17962 51.7901 8.48487 51.9936 8.89187L56.725 20.593C56.8776 20.9491 56.8267 21.3561 56.6232 21.7122C56.318 22.0683 55.9618 22.2718 55.5548 22.2718ZM46.4992 8.94274C46.2448 8.94274 46.0922 9.14624 46.0413 9.34974L45.6343 21.1017C45.6343 21.2035 45.6852 21.3052 45.7361 21.407C45.787 21.4578 45.8887 21.5087 45.9905 21.5087H55.5548C55.7075 21.5087 55.8092 21.4578 55.911 21.3052C56.0127 21.2035 56.0127 21.0509 55.9618 20.8982L51.2305 9.19711C51.1796 9.04449 51.027 8.94274 50.8744 8.94274H46.4992Z" fill="#3A3A3A"/>
<path d="M56.0634 20.3386H58.5563C59.065 20.3386 59.4212 20.7965 59.4212 21.3052V21.3561C59.4212 21.8648 59.0142 22.3227 58.5054 22.3227H56.0126C55.5038 22.3227 55.1477 21.8648 55.1477 21.3561V21.3052C55.1986 20.7965 55.6056 20.3386 56.0634 20.3386Z" fill="#303030"/>
<path d="M52.1462 18.151H56.1653C56.5723 18.151 56.8776 18.558 56.8776 19.0668L56.7758 21.4579C56.7758 21.9666 56.4197 22.3736 56.0127 22.3736H51.9936C51.5866 22.3736 51.2814 21.9666 51.2814 21.4579L51.3831 19.0668C51.3831 18.558 51.7392 18.151 52.1462 18.151Z" fill="#303030"/>
<path d="M53.2655 18.151H57.2846C57.6916 18.151 57.9968 18.558 57.9968 19.0668L57.8951 21.4579C57.8951 21.9666 57.5389 22.3736 57.132 22.3736H53.1129C52.7059 22.3736 52.4006 21.9666 52.4006 21.4579L52.5024 19.0668C52.5024 18.558 52.8585 18.151 53.2655 18.151Z" fill="#3D3D3D"/>
<path d="M76.4134 37.6359H69.9015C69.4945 37.6359 69.1383 37.3307 69.0875 36.9237L68.6805 33.8712C68.6296 33.6168 68.7313 33.3625 68.884 33.2098C69.0366 33.0063 69.291 32.9046 69.5453 32.9046H76.5151C76.7186 32.9046 76.973 33.0063 77.1256 33.159C77.2782 33.3116 77.38 33.5151 77.3291 33.7695L77.2274 36.8219C77.2782 37.2798 76.8713 37.6359 76.4134 37.6359ZM69.5962 33.3625C69.4945 33.3625 69.3927 33.4133 69.291 33.5151C69.2401 33.6168 69.1892 33.7186 69.1892 33.8203L69.5962 36.8728C69.5962 37.0763 69.7488 37.178 69.9523 37.178H76.4134C76.6169 37.178 76.8204 37.0254 76.8204 36.8219L76.9221 33.7695C76.9221 33.6677 76.8713 33.566 76.8204 33.5151C76.7695 33.4642 76.6678 33.4133 76.566 33.4133H69.5962V33.3625Z" fill="#353535"/>
<g opacity="0.29">
<path opacity="0.29" d="M77.1256 27.868C77.2273 27.6645 77.1765 27.461 76.973 27.3593L71.1733 24.1542C70.9698 24.0525 70.7663 24.1033 70.6645 24.3068C70.5628 24.5103 70.6136 24.7138 70.8171 24.8156L76.6168 28.0207C76.7695 28.1224 77.0238 28.0715 77.1256 27.868Z" fill="#D6850D"/>
</g>
<path d="M3.10334 40.4849H1.11924C0.559619 40.4849 0.101749 40.9427 0.101749 41.5024L0 44.0461C0 44.6057 0.406995 45.0636 0.966614 45.0636H3.00159C3.30684 45.0636 3.56121 44.8092 3.56121 44.504L3.66296 41.1463C3.71383 40.7393 3.45946 40.4849 3.10334 40.4849Z" fill="#3D3D3D"/>
<path opacity="0.7" d="M8.75026 32.9555H34.2892C34.4927 32.9555 34.6962 32.752 34.6962 32.5485C34.6962 32.345 34.5436 32.1415 34.2892 32.1415H8.80113C8.59764 32.1415 8.39414 32.345 8.39414 32.5485C8.34326 32.752 8.54676 32.9555 8.75026 32.9555Z" fill="#FFAF2E"/>
<path opacity="0.7" d="M9.56447 9.29887H35.1034C35.3069 9.29887 35.5104 9.09537 35.5104 8.89188C35.5104 8.68838 35.3578 8.48488 35.1034 8.48488H9.56447C9.36097 8.48488 9.15747 8.68838 9.15747 8.89188C9.15747 9.14625 9.31009 9.29887 9.56447 9.29887Z" fill="#FFAF2E"/>
<path d="M61.3034 34.0238H60.1841C59.7771 34.0238 59.421 33.6677 59.421 33.2607V32.8029C59.421 32.3959 59.7771 32.0397 60.1841 32.0397H61.3034C61.7104 32.0397 62.0665 32.3959 62.0665 32.8029V33.2607C62.0665 33.6677 61.7104 34.0238 61.3034 34.0238Z" fill="#3D3D3D"/>
<path d="M61.0493 34.0231H59.8792C59.4722 34.0231 59.167 33.7179 59.167 33.3109V32.8022C59.167 32.3952 59.4722 32.0899 59.8792 32.0899H61.0493C61.4563 32.0899 61.7616 32.3952 61.7616 32.8022V33.3109C61.7616 33.7179 61.4055 34.0231 61.0493 34.0231Z" fill="#474747"/>
<path d="M60.7437 33.6165H60.1332C59.8788 33.6165 59.6753 33.413 59.6753 33.1586V32.9042C59.6753 32.6499 59.8788 32.4464 60.1332 32.4464H60.7945C61.0489 32.4464 61.2524 32.6499 61.2524 32.9042V33.1586C61.2015 33.413 60.998 33.6165 60.7437 33.6165Z" fill="#EA5615"/>
<path d="M49.0939 44.1478H25.1829C24.8776 44.1478 24.5724 43.8935 24.5724 43.5373C24.5724 43.2321 24.8268 42.9269 25.1829 42.9269H49.0939C49.3991 42.9269 49.7044 43.1812 49.7044 43.5373C49.6535 43.8935 49.3991 44.1478 49.0939 44.1478Z" fill="#2B2B2B"/>
<path d="M46.2956 44.1478H25.03C24.7248 44.1478 24.4196 43.8935 24.4196 43.5373C24.4196 43.2321 24.6739 42.9269 25.03 42.9269H46.2956C46.6008 42.9269 46.9061 43.1812 46.9061 43.5373C46.8552 43.8935 46.6008 44.1478 46.2956 44.1478Z" fill="#3F3F3F"/>
</svg>
