<svg width="88" height="111" viewBox="0 0 88 111" fill="none" xmlns="http://www.w3.org/2000/svg">
<path d="M11.3999 97.3949C11.3999 97.3949 14.5999 101.195 21.0999 100.995C26.3999 100.795 31.0999 94.6949 31.0999 94.6949L19.5999 90.9949L11.3999 97.3949Z" fill="#F29981"/>
<path d="M49.1999 47.6949C49.1999 47.6949 35.9999 47.0949 28.8999 64.6949L36.9999 73.0949L39.6999 63.3949C39.6999 63.3949 45.9999 52.2949 49.1999 47.6949Z" fill="#FC2828"/>
<path d="M77.7999 55.0949C76.9999 50.7949 72.5999 48.3949 68.6999 47.4949C65.6999 46.7949 62.5999 46.7949 59.5999 46.8949C58.0999 46.8949 56.4999 46.9949 54.9999 46.9949C53.2999 46.9949 51.4999 47.0949 49.7999 47.4949C47.9999 47.9949 46.3999 48.9949 44.8999 50.0949C43.0999 51.4949 41.4999 53.1949 40.2999 55.1949C39.4999 56.4949 38.8999 57.8949 38.4999 59.3949C34.2999 73.6949 41.5999 105.595 41.5999 105.595C54.4999 108.995 82.9999 100.395 73.8999 105.595C73.6999 105.595 80.1999 67.9949 77.7999 55.0949Z" fill="#FC2828"/>
<path d="M42.8001 49.1949C41.7001 52.8949 41.9001 57.1949 42.4001 60.6949C44.3001 73.3949 54.7001 85.2949 67.6001 87.3949C70.5001 87.8949 73.5001 87.8949 76.4001 87.3949C75.5001 94.6949 74.5001 101.095 74.0001 103.995C68.8001 104.195 50.9001 108.195 41.5001 105.695C41.5001 105.695 37.5001 87.9949 37.2001 73.0949V73.1949L29.1001 64.7949C32.8001 55.1949 38.4001 50.9949 42.8001 49.1949Z" fill="#D81D2D"/>
<path d="M73.7002 105.595C73.7002 105.595 73.8002 104.995 74.0002 103.895C75.8002 103.795 76.1002 104.195 73.7002 105.595Z" fill="#D1D1D1"/>
<path d="M40.2 116.695C40.7 120.895 72.7 116.495 72.7 116.495L76.9 94.4949L37.7 93.5949C37.6 93.5949 39.3 109.495 40.2 116.695Z" fill="#2A6FDB"/>
<path d="M53.5001 172.395C49.3001 172.995 45.0001 173.595 40.7001 173.895C37.4001 130.895 37.7001 92.2949 37.6001 93.5949L53.1001 110.495C53.5001 109.195 50.7001 127.995 53.5001 172.395Z" fill="#2A6FDB"/>
<path d="M74.9 139.895C69.9 141.395 65 142.695 60 144.295C57.7 114.195 62.4 105.295 62.3 105.495L76.7 94.5949C76.8 94.4949 73.9 110.595 74.9 139.895Z" fill="#2A6FDB"/>
<path d="M38.6001 94.6949L43.1001 69.4949H66.0001L69.2001 96.0949L38.6001 94.6949Z" fill="#2A6FDB"/>
<path d="M46.3001 48.3949C43.0001 56.5949 42.9001 69.8949 43.0001 70.4949L47.3001 70.1949C47.1001 65.6949 47.3001 52.5949 51.5001 47.1949C50.4001 46.9949 47.7001 47.4949 46.3001 48.3949Z" fill="#2A6FDB"/>
<path d="M65.6999 47.0949C61.2999 55.1949 62.1999 69.4949 62.2999 69.4949H66.1999C65.9999 65.4949 66.3999 53.5949 70.1999 47.8949C69.4999 47.0949 67.1999 46.8949 65.6999 47.0949Z" fill="#2A6FDB"/>
<path d="M46.2999 74.4949C46.2999 74.4949 40.3999 89.1949 52.6999 88.7949C65.0999 88.3949 61.3999 74.4949 61.3999 74.4949H46.2999Z" fill="#558CE2"/>
<path d="M67.9 111.195L55.4 115.095L44 110.995L52.8 118.395L59.6 117.895L67.9 111.195Z" fill="#FFB737"/>
<path d="M52.7 49.0949C52.7 50.9949 55.4 51.7949 57.3 51.7949C59.8 51.7949 63.3 50.4949 62.9 47.8949L61.4 38.9949C61.2 37.1949 59.4 35.7949 57.2 35.8949L56.2 35.9949C54.1 36.0949 52.4 37.6949 52.6 39.4949L52.7 49.0949Z" fill="#F79178"/>
<path d="M42 25.0949C43.5 24.8949 44.9 26.2949 45.2 28.2949C45.5 30.2949 44.5 32.0949 43.1 32.2949C41.6 32.4949 40.2 31.0949 39.9 29.0949C39.6 27.0949 40.5 25.2949 42 25.0949Z" fill="#F79178"/>
<path d="M54.3 8.79491L59.3 8.89491C65.9 8.99491 71.2 16.2949 71.1 22.8949L71 31.8949C70.9 38.4949 65.5 43.7949 58.9 43.6949L53.9 43.5949C47.3 43.4949 42 38.0949 42.1 31.4949L42.2 22.4949C42.3 15.8949 47.7 8.69491 54.3 8.79491Z" fill="#F9A184"/>
<path d="M72.8001 24.8949C74.2001 25.2949 74.9001 27.1949 74.3001 29.1949C73.7001 31.0949 72.1001 32.2949 70.7001 31.8949C69.3001 31.4949 68.6001 29.5949 69.2001 27.5949C69.7001 25.6949 71.4001 24.4949 72.8001 24.8949Z" fill="#F9A184"/>
<path d="M55.9001 42.0949C64.0001 41.9949 68.7 36.7949 69.8 29.3949C70.2 29.3949 70.6 29.4949 71 29.3949C72.3 29.2949 73.8001 28.2949 74.4001 26.9949C74.5001 27.5949 74.5 28.3949 74.3 29.0949C73.8 30.8949 72.3 31.9949 71 31.7949C70.9 38.2949 65.5001 43.5949 58.9001 43.4949L53.9001 43.3949C48.0001 43.2949 43.1 38.8949 42.3 33.1949C44.4 37.7949 46.8001 42.2949 55.9001 42.0949Z" fill="#F79178"/>
<path d="M50.3999 33.2949L60.2999 33.3949C60.8999 33.3949 61.2999 34.0949 61.0999 34.6949C60.0999 37.4949 57.8999 39.3949 55.3999 39.3949C52.8999 39.3949 50.7999 37.3949 49.6999 34.5949C49.3999 33.9949 49.7999 33.2949 50.3999 33.2949Z" fill="white"/>
<path d="M49.6 23.7949C50.5 24.1949 50.8 25.6949 50.2 27.0949C49.7 28.5949 48.6 29.3949 47.7 29.0949C46.8 28.6949 46.5 27.1949 47.1 25.7949C47.6 24.1949 48.7 23.3949 49.6 23.7949Z" fill="#35221A"/>
<path opacity="0.08" d="M50 27.5949C49.4 28.6949 48.5 29.3949 47.7 28.9949C46.8 28.5949 46.5 27.0949 47.1 25.6949C47.3 25.1949 47.6 24.6949 47.9 24.3949C48.2 24.9949 49.7 27.1949 50 27.5949Z" fill="white"/>
<path d="M63.7001 24.2949C64.6001 24.6949 64.9001 26.1949 64.3001 27.5949C63.8001 29.0949 62.7001 29.8949 61.8001 29.5949C60.9001 29.1949 60.6001 27.6949 61.2001 26.2949C61.7001 24.6949 62.9001 23.8949 63.7001 24.2949Z" fill="#35221A"/>
<path opacity="0.08" d="M64.1999 28.0949C63.5999 29.1949 62.7 29.8949 61.9 29.4949C61 29.0949 60.6999 27.5949 61.2999 26.1949C61.4999 25.6949 61.7999 25.1949 62.0999 24.8949C62.2999 25.4949 63.7999 27.6949 64.1999 28.0949Z" fill="white"/>
<path d="M42.1999 25.0949C42.1999 25.0949 39.9999 6.49494 57.1999 5.59494C74.0999 4.79494 70.9999 25.0949 70.9999 25.0949C70.9999 25.0949 70.0999 25.4949 69.6999 23.7949C68.6999 19.8949 66.1999 12.5949 63.0999 12.5949C63.0999 12.5949 58.6999 14.7949 55.4999 14.6949C51.9999 14.5949 49.5999 12.6949 49.5999 12.6949C46.8999 12.7949 43.2999 19.5949 42.1999 25.0949Z" fill="#563428"/>
<path d="M70.4 16.0949C69.1 14.0949 67.4999 12.3949 66.0999 10.4949C65.0999 10.3949 64.0999 10.3949 63.0999 10.2949C62.2999 10.1949 61.6 10.0949 60.8 9.89492C59.1 9.69492 57.3 9.59492 55.8 8.79492C55.7 8.69492 55.5999 8.69492 55.4999 8.59492C54.1999 8.39492 52.8999 8.19492 51.4999 8.09492C51.1999 8.09492 51 7.99492 50.7 7.79492C50.5 7.79492 50.4 7.79492 50.2 7.89492C48.9 8.09492 46.7 8.19492 45.2 8.99492C46.6 11.3949 48.8 12.1949 48.8 12.1949C48.8 12.1949 63.2 9.89492 65.4 11.4949C67.6 12.9949 70.9 23.5949 70.9 23.5949C70.9 23.5949 71.7 21.6949 72.4 19.1949C71.9 18.0949 71.1 17.0949 70.4 16.0949Z" fill="#563428"/>
<path d="M42.2 25.0949C42.2 25.0949 39.6 7.39493 46 7.99493C52.5 8.49493 44.1 15.1949 44.1 15.1949L42.2 25.0949Z" fill="#563428"/>
<path d="M44.9 8.09494C39.8 9.49494 42.1 25.0949 42.1 25.0949C43.2 19.5949 46.9 12.7949 49.6 12.6949C49.7 12.6949 47.2 11.1949 44.9 8.09494Z" fill="#472A21"/>
<path opacity="0.1" d="M70.4 16.0949C69.1 14.0949 67.4999 12.3949 66.0999 10.4949C65.0999 10.3949 64.0999 10.3949 63.0999 10.2949C62.2999 10.1949 61.6 10.0949 60.8 9.89492C59.1 9.69492 57.3 9.59492 55.8 8.79492C55.7 8.69492 55.5999 8.69492 55.4999 8.59492C54.1999 8.39492 52.8999 8.19492 51.4999 8.09492C51.1999 8.09492 51 7.99492 50.7 7.79492C50.5 7.79492 50.4 7.79492 50.2 7.89492C48.4 8.09492 44.8999 8.29492 43.9999 10.2949C43.6999 11.0949 43 11.1949 42.4 10.9949C41.1 14.5949 41.5 20.4949 41.8 23.4949C46.5 25.5949 52.0999 26.3949 56.9999 26.3949C61.6999 26.3949 66.3999 25.6949 70.9999 24.3949C70.9999 24.0949 71.0999 23.6949 71.0999 23.1949C71.3999 22.4949 71.9 20.9949 72.4 19.1949C71.9 18.0949 71.1 17.0949 70.4 16.0949Z" fill="black"/>
<path d="M66.0001 7.59493C66.1001 7.59493 66.3001 7.59493 66.4001 7.59493C67.1001 9.89493 64.4001 9.09493 61.1001 7.39493C62.7001 7.39493 64.3001 7.49493 66.0001 7.59493Z" fill="#563428"/>
<path d="M65.8 17.6949C63.2 14.8949 59 13.8949 55.3 13.3949C52.5 12.9949 49.8 13.0949 47.2 13.6949C44.5 12.5949 42.7 11.1949 43.1 9.59493C44.1 4.59493 48.2 1.59493 53 0.494928C59.9 -1.10507 68.3 1.19493 71.6 7.09493C73.6 10.6949 73.6 14.9949 72.9 18.8949C72.8 19.4949 72.7 19.9949 72.5 20.4949C72.4 20.6949 72.2 20.7949 72 20.6949C69.3 19.5949 67.6 18.8949 66.5 18.3949C66.3 18.2949 66.1 17.9949 65.8 17.6949Z" fill="#1E55BC"/>
<path opacity="0.15" d="M47.9999 6.49494C51.5999 7.09494 55.8999 6.99494 59.0999 4.89494C60.5999 3.89494 61.7999 2.49494 62.5999 0.794944C59.4999 -0.0050565 56.0999 -0.105056 52.9999 0.594944C49.5999 1.39494 46.6 3.09494 44.7 5.79494C45.8 6.09494 46.8999 6.29494 47.9999 6.49494Z" fill="white"/>
<path d="M38 17.8949C38 17.8949 38.3 19.4949 41.7 19.4949C41.7 19.4949 44.7 13.4949 51.1 14.2949C57.5 14.9949 61.1 17.5949 61.1 17.5949C61.1 17.5949 49.3 7.79492 44.2 10.5949C39 13.2949 38 16.0949 38 17.8949Z" fill="#081E69"/>
<path d="M70.6 20.2949C70.6 20.2949 62.2 21.5949 59.3 19.6949C56.4 17.7949 55.3 11.7949 48.5 11.3949C41.6 10.9949 38.1 17.7949 38.1 17.7949C38.1 17.7949 37.2 14.5949 41.8 10.4949C46.2 6.39493 63.8 7.39493 70.6 20.2949Z" fill="#2A6FDB"/>
<path d="M38 16.8949C38 16.8949 41.5 10.0949 48.4 10.4949C55.3 10.8949 56.4 16.8949 59.2 18.7949C61.7 20.3949 68.1 19.6949 70 19.3949C70.2 19.6949 70.3 19.9949 70.5 20.2949C70.5 20.2949 62.1 21.5949 59.2 19.6949C56.3 17.7949 55.2 11.7949 48.4 11.3949C41.5 10.9949 38 17.7949 38 17.7949C38 17.7949 37.9 17.3949 38 16.5949C38 16.7949 38 16.8949 38 16.8949Z" fill="#153F9D"/>
<path d="M32.8 68.7949L32.5 68.6949L32.2 68.9949L0 71.6949L6.80002 93.3949L42.6 101.695L58.5 85.6949L51.7 62.7949L32.8 68.7949Z" fill="#BD9B7B"/>
<path d="M51.8 62.7949L32.8 68.7949L32.5 68.6949L32.3 68.8949L42.6 101.695L58.5 85.6949L51.8 62.7949Z" fill="#AF8D71"/>
<path d="M0 71.6949L35 77.4949L51.8 62.7949L17.3 56.5949L0 71.6949Z" fill="#D8BA98"/>
<path d="M39.3999 84.8949C39.3999 84.8949 47.0999 87.0949 48.7999 86.4949C48.7999 86.4949 43.7999 84.2949 41.2999 83.5949C39.9999 83.1949 39.3999 84.8949 39.3999 84.8949Z" fill="#F29981"/>
<path d="M49.3999 86.4949C44.1999 85.6949 39.4999 83.7949 36.2999 83.2949C33.0999 82.6949 30.5999 83.7949 28.4999 84.1949C26.3999 84.5949 27.9999 86.7949 30.0999 86.6949C31.0999 86.5949 35.0999 85.5949 36.9999 86.4949C36.9999 86.4949 33.9999 86.7949 32.1999 87.4949C30.3999 88.1949 29.9999 89.5949 28.9999 90.9949C28.0999 92.3949 30.2999 92.8949 31.4999 92.0949C32.7999 91.2949 32.6999 90.6949 33.8999 90.0949C35.0999 89.4949 38.7999 89.7949 38.7999 89.7949C38.7999 89.7949 35.3999 90.6949 34.3999 91.4949C33.3999 92.2949 32.0999 95.1949 31.5999 96.1949C31.0999 97.1949 33.6999 97.5949 34.8999 96.1949C36.0999 94.6949 36.2999 93.9949 37.5999 93.4949C38.5999 93.0949 40.2999 92.9949 40.2999 92.9949C40.2999 92.9949 37.3999 93.9949 36.6999 96.7949C35.9999 99.5949 35.9999 99.6949 35.7999 100.495C35.5999 101.295 37.6999 101.995 38.4999 100.095C39.8999 96.6949 40.6999 96.3949 42.2999 95.9949C43.7999 95.5949 45.3999 96.9949 46.6999 97.3949C47.9999 97.7949 51.0999 96.0949 52.5999 94.2949C52.9999 93.6949 53.5999 87.1949 49.3999 86.4949Z" fill="#F9A184"/>
<path d="M6.5001 87.8949C7.1001 88.0949 8.00013 88.9949 8.40013 89.3949C8.00013 86.9949 7.70011 85.0949 7.70011 83.9949C7.70011 82.6949 7.50012 80.4949 8.30012 80.3949C9.10012 80.2949 9.60012 81.0949 9.80012 82.2949C10.4001 85.6949 11.5001 88.9949 11.5001 88.9949C11.5001 88.9949 10.6001 83.9949 11.0001 80.7949C11.2001 79.1949 11.2001 78.4949 12.0001 78.4949C12.5001 78.4949 13.1001 79.4949 13.2001 81.1949C13.6001 85.6949 14.4001 88.5949 14.4001 88.5949C14.4001 88.5949 13.4001 84.9949 14.3001 81.2949C14.5001 80.3949 14.5001 79.1949 15.2001 79.2949C15.9001 79.3949 16.6001 80.0949 16.6001 82.6949C16.6001 86.7949 17.5001 88.7949 17.5001 88.7949C17.5001 88.7949 16.9001 87.2949 17.5001 83.4949C17.7001 82.3949 17.7001 80.9949 18.2001 80.9949C19.0001 80.9949 19.8001 81.8949 19.7001 84.0949C19.6001 85.7949 20.0001 87.4949 20.7001 89.0949C21.3001 90.5949 22.0001 92.2949 22.2001 93.9949C22.3001 95.0949 22.3001 96.2949 21.7001 97.1949C21.0001 98.2949 19.7001 98.7949 18.5001 98.9949C16.8001 99.2949 14.9001 99.2949 13.3001 98.5949C11.2001 97.7949 9.90012 96.0949 8.80012 94.2949C8.50012 93.7949 8.2001 93.2949 8.0001 92.8949C7.1001 91.3949 4.90013 89.1949 4.90013 88.8949C4.80013 88.1949 5.5001 87.5949 6.5001 87.8949Z" fill="#F9A184"/>
<path d="M64.3 96.1949C63.7 96.1949 63.1001 96.1949 62.4001 96.1949C56.7001 96.0949 51.7 95.4949 51.5 95.4949L51.3 87.8949C60 88.9949 71.9 86.7949 74.7 84.9949C74 81.7949 73.5 81.4949 73.6 71.1949C73.7 65.1949 73.8001 61.5949 74.4001 61.5949H84.3C84.8 61.5949 85.7001 68.5949 85.6001 75.1949C85.4001 85.3949 82.9 90.7949 79.3 93.1949C76.7 95.0949 71.7 96.1949 64.3 96.1949Z" fill="#F9A184"/>
<path d="M69.8999 47.8949C69.8999 47.8949 79.9999 48.1949 84.9999 59.5949C86.6999 63.4949 87.5999 69.3949 87.5999 69.3949L72.0999 71.7949L69.8999 47.8949Z" fill="#FC2828"/>
<path d="M10.3 65.2949L4.2 70.3949C4 70.5949 4.10001 70.9949 4.40001 70.9949L16.8 73.0949C16.9 73.0949 17 73.0949 17.1 72.9949L24 67.9949C24.2 67.7949 24.2 67.3949 23.9 67.3949L10.6 65.2949C10.5 65.1949 10.4 65.2949 10.3 65.2949Z" fill="#E8E1D1"/>
</svg>
